<svg width="40" height="40" viewBox="0 0 40 40" fill="none" xmlns="http://www.w3.org/2000/svg">
<g clip-path="url(#clip0)">
<path d="M20 28.3333C21.8333 28.3333 23.3333 26.8333 23.3333 25C23.3333 23.1666 21.8333 21.6666 20 21.6666C18.1666 21.6666 16.6666 23.1666 16.6666 25C16.6666 26.8333 18.1666 28.3333 20 28.3333ZM30 13.3333H28.3333V9.99996C28.3333 5.39996 24.6 1.66663 20 1.66663C15.4 1.66663 11.6666 5.39996 11.6666 9.99996H14.8333C14.8333 7.14996 17.15 4.83329 20 4.83329C22.85 4.83329 25.1666 7.14996 25.1666 9.99996V13.3333H9.99996C8.16663 13.3333 6.66663 14.8333 6.66663 16.6666V33.3333C6.66663 35.1666 8.16663 36.6666 9.99996 36.6666H30C31.8333 36.6666 33.3333 35.1666 33.3333 33.3333V16.6666C33.3333 14.8333 31.8333 13.3333 30 13.3333ZM30 33.3333H9.99996V16.6666H30V33.3333Z" fill="#F8F8F8"/>
</g>
<defs>
<clipPath id="clip0">
<rect width="40" height="40" fill="white"/>
</clipPath>
</defs>
</svg>
