<svg width="183" height="55" viewBox="0 0 183 55" fill="none" xmlns="http://www.w3.org/2000/svg">
<path d="M86.6023 45.1194C86.8048 44.7652 87.1012 44.476 87.4916 44.2519C87.882 44.0278 88.3266 43.9157 88.8255 43.9157C89.3604 43.9157 89.8412 44.0422 90.2678 44.2953C90.6943 44.5483 91.0305 44.9062 91.2763 45.3689C91.5221 45.8243 91.645 46.3557 91.645 46.963C91.645 47.563 91.5221 48.098 91.2763 48.568C91.0305 49.0379 90.6907 49.403 90.2569 49.6633C89.8304 49.9235 89.3532 50.0537 88.8255 50.0537C88.3121 50.0537 87.8603 49.9416 87.4699 49.7175C87.0867 49.4934 86.7975 49.2078 86.6023 48.8608V49.9561H85.6155V41.9312H86.6023V45.1194ZM90.6365 46.963C90.6365 46.5148 90.5461 46.1244 90.3654 45.7918C90.1846 45.4592 89.9388 45.2062 89.6279 45.0327C89.3243 44.8592 88.9881 44.7724 88.6194 44.7724C88.2579 44.7724 87.9217 44.8628 87.6109 45.0435C87.3072 45.217 87.0614 45.4737 86.8735 45.8135C86.6927 46.146 86.6023 46.5328 86.6023 46.9738C86.6023 47.4221 86.6927 47.8161 86.8735 48.1559C87.0614 48.4884 87.3072 48.7451 87.6109 48.9258C87.9217 49.0993 88.2579 49.1861 88.6194 49.1861C88.9881 49.1861 89.3243 49.0993 89.6279 48.9258C89.9388 48.7451 90.1846 48.4884 90.3654 48.1559C90.5461 47.8161 90.6365 47.4185 90.6365 46.963ZM98.3662 46.7569C98.3662 46.9449 98.3553 47.1437 98.3337 47.3534H93.5838C93.6199 47.939 93.8188 48.3981 94.1802 48.7306C94.5489 49.056 94.9936 49.2186 95.5141 49.2186C95.9407 49.2186 96.2949 49.121 96.5769 48.9258C96.866 48.7234 97.0685 48.4559 97.1841 48.1233H98.2469C98.0879 48.6945 97.7697 49.1608 97.2926 49.5223C96.8154 49.8765 96.2226 50.0537 95.5141 50.0537C94.9502 50.0537 94.4441 49.9271 93.9959 49.6741C93.5549 49.4211 93.2079 49.0632 92.9548 48.6005C92.7018 48.1306 92.5753 47.5884 92.5753 46.9738C92.5753 46.3593 92.6982 45.8207 92.944 45.358C93.1898 44.8953 93.5332 44.5411 93.9742 44.2953C94.4224 44.0422 94.9357 43.9157 95.5141 43.9157C96.078 43.9157 96.5769 44.0386 97.0106 44.2844C97.4444 44.5302 97.777 44.87 98.0083 45.3038C98.2469 45.7303 98.3662 46.2147 98.3662 46.7569ZM97.3468 46.5509C97.3468 46.175 97.2637 45.8532 97.0974 45.5857C96.9311 45.311 96.7034 45.105 96.4142 44.9676C96.1322 44.823 95.8177 44.7507 95.4707 44.7507C94.9719 44.7507 94.5453 44.9098 94.1911 45.2279C93.8441 45.546 93.6452 45.987 93.5946 46.5509H97.3468ZM109.706 43.9049C110.169 43.9049 110.581 44.0025 110.943 44.1977C111.304 44.3856 111.59 44.6712 111.799 45.0544C112.009 45.4375 112.114 45.9038 112.114 46.4533V49.9561H111.138V46.5943C111.138 46.0014 110.99 45.5496 110.693 45.2387C110.404 44.9206 110.01 44.7616 109.511 44.7616C108.998 44.7616 108.589 44.9278 108.286 45.2604C107.982 45.5857 107.83 46.0593 107.83 46.681V49.9561H106.854V46.5943C106.854 46.0014 106.706 45.5496 106.41 45.2387C106.121 44.9206 105.727 44.7616 105.228 44.7616C104.714 44.7616 104.306 44.9278 104.002 45.2604C103.699 45.5857 103.547 46.0593 103.547 46.681V49.9561H102.56V44.0133H103.547V44.87C103.742 44.5591 104.002 44.3206 104.328 44.1543C104.66 43.988 105.025 43.9049 105.423 43.9049C105.922 43.9049 106.363 44.0169 106.746 44.241C107.129 44.4652 107.415 44.7941 107.603 45.2279C107.769 44.8086 108.044 44.4832 108.427 44.2519C108.81 44.0205 109.237 43.9049 109.706 43.9049ZM116.325 50.0537C115.768 50.0537 115.262 49.9271 114.806 49.6741C114.358 49.4211 114.004 49.0632 113.744 48.6005C113.49 48.1306 113.364 47.5884 113.364 46.9738C113.364 46.3665 113.494 45.8316 113.754 45.3689C114.022 44.8989 114.383 44.5411 114.839 44.2953C115.294 44.0422 115.804 43.9157 116.368 43.9157C116.932 43.9157 117.441 44.0422 117.897 44.2953C118.352 44.5411 118.71 44.8953 118.971 45.358C119.238 45.8207 119.372 46.3593 119.372 46.9738C119.372 47.5884 119.234 48.1306 118.96 48.6005C118.692 49.0632 118.327 49.4211 117.864 49.6741C117.402 49.9271 116.888 50.0537 116.325 50.0537ZM116.325 49.1861C116.679 49.1861 117.011 49.103 117.322 48.9367C117.633 48.7704 117.882 48.521 118.07 48.1884C118.266 47.8558 118.363 47.451 118.363 46.9738C118.363 46.4967 118.269 46.0918 118.081 45.7593C117.893 45.4267 117.648 45.1809 117.344 45.0218C117.04 44.8556 116.711 44.7724 116.357 44.7724C115.996 44.7724 115.663 44.8556 115.359 45.0218C115.063 45.1809 114.824 45.4267 114.644 45.7593C114.463 46.0918 114.373 46.4967 114.373 46.9738C114.373 47.4582 114.459 47.8667 114.633 48.1993C114.814 48.5318 115.052 48.7812 115.349 48.9475C115.645 49.1066 115.97 49.1861 116.325 49.1861ZM121.873 44.8266V48.3294C121.873 48.6186 121.935 48.8246 122.057 48.9475C122.18 49.0632 122.394 49.121 122.697 49.121H123.424V49.9561H122.535C121.985 49.9561 121.573 49.8295 121.298 49.5765C121.024 49.3235 120.886 48.9078 120.886 48.3294V44.8266H120.116V44.0133H120.886V42.5168H121.873V44.0133H123.424V44.8266H121.873ZM125.129 43.0481C124.941 43.0481 124.782 42.9831 124.652 42.8529C124.522 42.7228 124.457 42.5638 124.457 42.3758C124.457 42.1878 124.522 42.0288 124.652 41.8986C124.782 41.7685 124.941 41.7034 125.129 41.7034C125.31 41.7034 125.462 41.7685 125.585 41.8986C125.715 42.0288 125.78 42.1878 125.78 42.3758C125.78 42.5638 125.715 42.7228 125.585 42.8529C125.462 42.9831 125.31 43.0481 125.129 43.0481ZM125.606 44.0133V49.9561H124.619V44.0133H125.606ZM129.501 49.0451L131.344 44.0133H132.396L130.064 49.9561H128.915L126.583 44.0133H127.646L129.501 49.0451ZM132.998 46.963C132.998 46.3557 133.121 45.8243 133.367 45.3689C133.613 44.9062 133.949 44.5483 134.376 44.2953C134.809 44.0422 135.29 43.9157 135.818 43.9157C136.338 43.9157 136.79 44.0278 137.173 44.2519C137.557 44.476 137.842 44.758 138.03 45.0977V44.0133H139.028V49.9561H138.03V48.8499C137.835 49.1969 137.542 49.4861 137.152 49.7175C136.769 49.9416 136.32 50.0537 135.807 50.0537C135.279 50.0537 134.802 49.9235 134.376 49.6633C133.949 49.403 133.613 49.0379 133.367 48.568C133.121 48.098 132.998 47.563 132.998 46.963ZM138.03 46.9738C138.03 46.5256 137.94 46.1352 137.759 45.8026C137.578 45.4701 137.333 45.217 137.022 45.0435C136.718 44.8628 136.382 44.7724 136.013 44.7724C135.644 44.7724 135.308 44.8592 135.005 45.0327C134.701 45.2062 134.459 45.4592 134.278 45.7918C134.097 46.1244 134.007 46.5148 134.007 46.963C134.007 47.4185 134.097 47.8161 134.278 48.1559C134.459 48.4884 134.701 48.7451 135.005 48.9258C135.308 49.0993 135.644 49.1861 136.013 49.1861C136.382 49.1861 136.718 49.0993 137.022 48.9258C137.333 48.7451 137.578 48.4884 137.759 48.1559C137.94 47.8161 138.03 47.4221 138.03 46.9738ZM141.899 44.8266V48.3294C141.899 48.6186 141.961 48.8246 142.084 48.9475C142.207 49.0632 142.42 49.121 142.723 49.121H143.45V49.9561H142.561C142.011 49.9561 141.599 49.8295 141.325 49.5765C141.05 49.3235 140.912 48.9078 140.912 48.3294V44.8266H140.142V44.0133H140.912V42.5168H141.899V44.0133H143.45V44.8266H141.899ZM150.068 46.7569C150.068 46.9449 150.057 47.1437 150.035 47.3534H145.286C145.322 47.939 145.52 48.3981 145.882 48.7306C146.251 49.056 146.695 49.2186 147.216 49.2186C147.642 49.2186 147.997 49.121 148.279 48.9258C148.568 48.7234 148.77 48.4559 148.886 48.1233H149.949C149.79 48.6945 149.471 49.1608 148.994 49.5223C148.517 49.8765 147.924 50.0537 147.216 50.0537C146.652 50.0537 146.146 49.9271 145.698 49.6741C145.257 49.4211 144.91 49.0632 144.657 48.6005C144.404 48.1306 144.277 47.5884 144.277 46.9738C144.277 46.3593 144.4 45.8207 144.646 45.358C144.892 44.8953 145.235 44.5411 145.676 44.2953C146.124 44.0422 146.637 43.9157 147.216 43.9157C147.78 43.9157 148.279 44.0386 148.712 44.2844C149.146 44.5302 149.479 44.87 149.71 45.3038C149.949 45.7303 150.068 46.2147 150.068 46.7569ZM149.049 46.5509C149.049 46.175 148.965 45.8532 148.799 45.5857C148.633 45.311 148.405 45.105 148.116 44.9676C147.834 44.823 147.519 44.7507 147.172 44.7507C146.674 44.7507 146.247 44.9098 145.893 45.2279C145.546 45.546 145.347 45.987 145.296 46.5509H149.049ZM151.002 46.963C151.002 46.3557 151.125 45.8243 151.371 45.3689C151.616 44.9062 151.953 44.5483 152.379 44.2953C152.813 44.0422 153.297 43.9157 153.832 43.9157C154.295 43.9157 154.725 44.0241 155.123 44.241C155.52 44.4507 155.824 44.729 156.034 45.0761V41.9312H157.031V49.9561H156.034V48.8391C155.838 49.1933 155.549 49.4861 155.166 49.7175C154.783 49.9416 154.335 50.0537 153.821 50.0537C153.294 50.0537 152.813 49.9235 152.379 49.6633C151.953 49.403 151.616 49.0379 151.371 48.568C151.125 48.098 151.002 47.563 151.002 46.963ZM156.034 46.9738C156.034 46.5256 155.943 46.1352 155.763 45.8026C155.582 45.4701 155.336 45.217 155.025 45.0435C154.721 44.8628 154.385 44.7724 154.017 44.7724C153.648 44.7724 153.312 44.8592 153.008 45.0327C152.704 45.2062 152.462 45.4592 152.281 45.7918C152.101 46.1244 152.01 46.5148 152.01 46.963C152.01 47.4185 152.101 47.8161 152.281 48.1559C152.462 48.4884 152.704 48.7451 153.008 48.9258C153.312 49.0993 153.648 49.1861 154.017 49.1861C154.385 49.1861 154.721 49.0993 155.025 48.9258C155.336 48.7451 155.582 48.4884 155.763 48.1559C155.943 47.8161 156.034 47.4221 156.034 46.9738Z" fill="white"/>
<path d="M38.1897 0H11.9726C5.38633 0 0 5.38633 0 11.9692V38.1863C0 44.7692 5.38633 50.1556 11.9692 50.1556H38.1863C44.7692 50.1556 50.1556 44.7692 50.1556 38.1863V11.9692C50.1589 5.38633 44.7726 0 38.1897 0ZM33.7101 36.7538H28.0507L36.3223 21.7914H36.3156H30.8989H30.8922L22.5734 36.7538H16.914L27.5114 17.5983H22.0947L11.4401 36.7538H5.7807L18.6904 13.4052H18.7611H24.4272H29.8304H32.0753H35.5572L33.2247 17.5983H33.2314H38.6346H38.6413H40.7986H44.3816L33.7101 36.7538Z" fill="white"/>
<path d="M63.7111 14.0982H69.1509V16.5289C70.0807 15.5314 71.1131 14.7858 72.2513 14.2951C73.3863 13.8012 74.6271 13.5559 75.9705 13.5559C77.3271 13.5559 78.5481 13.8787 79.6367 14.5275C80.7253 15.1764 81.6022 16.1189 82.2706 17.3649C83.1342 16.1222 84.193 15.1764 85.4504 14.5275C86.7078 13.8787 88.0776 13.5559 89.5666 13.5559C91.1086 13.5559 92.4652 13.9045 93.6332 14.605C94.8012 15.3055 95.645 16.219 96.1546 17.3456C96.6674 18.4721 96.9222 20.3056 96.9222 22.8461V35.2448H91.4427V24.5149C91.4427 22.1198 91.1383 20.4961 90.5262 19.6471C89.914 18.7982 88.9975 18.3753 87.7765 18.3753C86.8467 18.3753 86.0129 18.6335 85.275 19.1532C84.5371 19.673 83.9912 20.3863 83.6338 21.2999C83.2765 22.2134 83.0945 23.6821 83.0945 25.7028V35.2448H77.6183V25.0024C77.6183 23.1108 77.476 21.7421 77.1881 20.8931C76.9036 20.0442 76.4734 19.4115 75.901 18.9983C75.3286 18.5851 74.637 18.3753 73.823 18.3753C72.9164 18.3753 72.0958 18.6368 71.3546 19.1629C70.6167 19.6891 70.0641 20.4219 69.7002 21.3677C69.3329 22.3135 69.1509 23.8048 69.1509 25.8384V35.2448H63.7111V14.0982Z" fill="white"/>
<path d="M109.079 18.5826C107.364 18.5826 105.938 19.1606 104.797 20.3133C103.656 21.4661 103.086 22.9435 103.086 24.7425C103.086 26.5934 103.65 28.0903 104.777 29.2398C105.904 30.3861 107.33 30.9609 109.058 30.9609C110.786 30.9609 112.223 30.3829 113.37 29.2204C114.518 28.0611 115.091 26.5674 115.091 24.7425C115.091 22.9176 114.528 21.4336 113.404 20.2938C112.273 19.1508 110.833 18.5826 109.079 18.5826ZM108.988 13.5559C111.062 13.5559 113.011 14.0592 114.836 15.0626C116.662 16.066 118.084 17.4298 119.108 19.1476C120.131 20.8686 120.644 22.726 120.644 24.7198C120.644 26.7265 120.131 28.6034 119.101 30.3504C118.071 32.0974 116.665 33.4612 114.89 34.4451C113.112 35.429 111.152 35.9226 109.011 35.9226C105.861 35.9226 103.17 34.838 100.942 32.6689C98.7106 30.4998 97.6 27.863 97.6 24.7587C97.6 21.4368 98.8582 18.667 101.378 16.4492C103.579 14.5203 106.119 13.5559 108.988 13.5559Z" fill="white"/>
<path d="M132.46 18.5826C130.796 18.5826 129.412 19.1606 128.304 20.3133C127.197 21.4661 126.644 22.9435 126.644 24.7425C126.644 26.5934 127.191 28.0903 128.285 29.2398C129.379 30.3861 130.763 30.9609 132.44 30.9609C134.118 30.9609 135.511 30.3829 136.625 29.2204C137.739 28.0611 138.296 26.5674 138.296 24.7425C138.296 22.9176 137.749 21.4336 136.658 20.2938C135.56 19.1508 134.163 18.5826 132.46 18.5826ZM132.375 13.5559C134.388 13.5559 136.28 14.0592 138.052 15.0626C139.823 16.066 141.204 17.4298 142.197 19.1476C143.191 20.8686 143.689 22.726 143.689 24.7198C143.689 26.7265 143.191 28.6034 142.191 30.3504C141.191 32.0974 139.826 33.4612 138.104 34.4451C136.378 35.429 134.476 35.9226 132.398 35.9226C129.34 35.9226 126.728 34.838 124.566 32.6689C122.4 30.4998 121.322 27.863 121.322 24.7587C121.322 21.4368 122.543 18.667 124.989 16.4492C127.126 14.5203 129.591 13.5559 132.375 13.5559Z" fill="white"/>
<path d="M141.656 14.2339H147.121L152.521 26.6302L157.908 14.2339H163.344L154.251 35.245H150.772L141.656 14.2339Z" fill="white"/>
<path d="M177.633 22.0765C177.278 20.8913 176.582 19.9269 175.544 19.1833C174.503 18.4397 173.297 18.0695 171.924 18.0695C170.431 18.0695 169.123 18.4884 168.001 19.3197C167.295 19.8425 166.641 20.7614 166.04 22.0765H177.633ZM182.98 26.2817H165.805C166.053 27.7949 166.716 28.9963 167.793 29.8893C168.87 30.7823 170.245 31.2304 171.914 31.2304C173.915 31.2304 175.629 30.5322 177.067 29.1392L181.572 31.2499C180.45 32.841 179.103 34.0165 177.538 34.7796C175.971 35.5427 174.11 35.9226 171.957 35.9226C168.613 35.9226 165.89 34.8705 163.789 32.7663C161.684 30.6621 160.633 28.0254 160.633 24.8561C160.633 21.6122 161.681 18.917 163.776 16.7706C165.87 14.6275 168.499 13.5559 171.66 13.5559C175.017 13.5559 177.743 14.6275 179.845 16.7706C181.946 18.9138 183 21.7453 183 25.2653L182.98 26.2817Z" fill="white"/>
</svg>
