<svg width="30" height="30" viewBox="0 0 30 30" fill="none" xmlns="http://www.w3.org/2000/svg">
<g clip-path="url(#clip0)">
<path d="M15.5853 19.1669L22.2604 12.4917C22.4149 12.3373 22.5 12.1312 22.5 11.9114C22.5 11.6917 22.4149 11.4856 22.2604 11.3312L21.7689 10.8396C21.4487 10.5197 20.9282 10.5197 20.6084 10.8396L15.0031 16.4449L9.39157 10.8334C9.23706 10.679 9.03108 10.5937 8.81145 10.5937C8.59158 10.5937 8.3856 10.679 8.23097 10.8334L7.73963 11.325C7.58512 11.4795 7.5 11.6854 7.5 11.9052C7.5 12.125 7.58512 12.3311 7.73963 12.4854L14.4208 19.1669C14.5758 19.3216 14.7827 19.4066 15.0027 19.4061C15.2236 19.4066 15.4304 19.3216 15.5853 19.1669Z" fill="#F8F8F8"/>
</g>
<defs>
<clipPath id="clip0">
<rect width="15" height="15" fill="white" transform="translate(22.5 7.5) rotate(90)"/>
</clipPath>
</defs>
</svg>
