<svg width="40" height="40" viewBox="0 0 40 40" fill="none" xmlns="http://www.w3.org/2000/svg">
<g clip-path="url(#clip0)">
<path d="M34.1446 5.85708C30.3671 2.07966 25.3446 -0.000732422 20.0024 -0.000732422C14.6602 -0.000732422 9.63768 2.07966 5.86025 5.85708C2.08275 9.63458 0.00244141 14.6571 0.00244141 19.9993C0.00244141 25.3415 2.08275 30.3639 5.86025 34.1414C9.63775 37.9189 14.6602 39.9993 20.0024 39.9993C25.3446 39.9993 30.3671 37.9189 34.1446 34.1414C37.9221 30.3639 40.0024 25.3415 40.0024 19.9993C40.0024 14.6571 37.9221 9.63466 34.1446 5.85708ZM20.0024 37.6555C10.2667 37.6555 2.34619 29.735 2.34619 19.9993C2.34619 10.2636 10.2667 2.34302 20.0024 2.34302C29.7381 2.34302 37.6587 10.2636 37.6587 19.9993C37.6587 29.735 29.7381 37.6555 20.0024 37.6555Z" fill="#F8F8F8"/>
<path d="M29.5599 13.5826C29.1023 13.1251 28.3602 13.1251 27.9027 13.5827L17.5543 23.9311L12.1069 18.4836C11.6493 18.0261 10.9073 18.0261 10.4496 18.4836C9.99197 18.9412 9.99197 19.6832 10.4496 20.1409L16.7256 26.4169C16.9545 26.6457 17.2544 26.7601 17.5542 26.7601C17.8541 26.7601 18.1541 26.6457 18.3828 26.4169L29.5599 15.2399C30.0175 14.7823 30.0175 14.0403 29.5599 13.5826Z" fill="#F8F8F8"/>
</g>
<defs>
<clipPath id="clip0">
<rect width="40" height="40" fill="white"/>
</clipPath>
</defs>
</svg>
