<svg width="40" height="40" viewBox="0 0 40 40" fill="none" xmlns="http://www.w3.org/2000/svg">
<g clip-path="url(#clip0)">
<path d="M16.7151 9.34251L7.09214 18.9655C6.81767 19.24 6.66699 19.6061 6.66699 20.0044C6.66699 20.3949 6.81767 20.7608 7.09214 21.0353L16.7151 30.6585C17.2838 31.227 18.2093 31.227 18.7776 30.6585L19.6517 29.7848C19.926 29.5103 20.0769 29.1441 20.0769 28.7535C20.0769 28.363 19.926 27.9842 19.6517 27.71L14.0374 22.0835L31.8739 22.0835C32.6778 22.0835 33.3337 21.4539 33.3337 20.65L33.3337 19.4143C33.3337 18.6104 32.6778 17.917 31.8739 17.917L13.9741 17.917L19.6517 12.2587C19.926 11.9845 20.0769 11.628 20.0769 11.2374C20.0769 10.8467 19.926 10.4859 19.6517 10.2112L18.7776 9.34013C18.2091 8.77146 17.2838 8.77362 16.7151 9.34251Z" fill="#F8F8F8"/>
</g>
<defs>
<clipPath id="clip0">
<rect width="26.6667" height="26.6667" fill="white" transform="translate(6.66699 33.3333) rotate(-90)"/>
</clipPath>
</defs>
</svg>
