<svg width="44" height="44" viewBox="0 0 44 44" fill="none" xmlns="http://www.w3.org/2000/svg">
<circle cx="22" cy="22" r="22" fill="#F8F8F8"/>
<path d="M26.5 13.9V14.4H27H29C29.8513 14.4 30.5 15.0521 30.5 15.8V29.1C30.5 29.8479 29.8513 30.5 29 30.5H15C14.1487 30.5 13.5 29.8479 13.5 29.1V15.8C13.5 15.0521 14.1487 14.4 15 14.4H17H17.5V13.9V12.5H18.5V13.9V14.4H19H25H25.5V13.9V12.5H26.5V13.9ZM15 16.25H14.5V16.75V18.65V19.15H15H29H29.5V18.65V16.75V16.25H29H15Z" stroke="#2D2D2D"/>
<circle cx="32" cy="28" r="6" fill="#2D2D2D"/>
<rect x="29.6016" y="27.6199" width="4.8" height="0.685714" rx="0.342857" fill="#F8F8F8"/>
<rect x="32.3789" y="25.6001" width="4.8" height="0.685714" rx="0.342857" transform="rotate(90 32.3789 25.6001)" fill="#F8F8F8"/>
</svg>
