<svg width="18" height="18" viewBox="0 0 18 18" fill="none"
    xmlns="http://www.w3.org/2000/svg">
    <g clip-path="url(#clip0)">
        <path d="M13.5 0.691016V1.19102H14H16C16.8513 1.19102 17.5 1.84316 17.5 2.59102V15.891C17.5 16.6389 16.8513 17.291 16 17.291H2C1.14867 17.291 0.5 16.6389 0.5 15.891V2.59102C0.5 1.84316 1.14867 1.19102 2 1.19102H4H4.5V0.691016V-0.708984H5.5V0.691016V1.19102H6H12H12.5V0.691016V-0.708984H13.5V0.691016ZM2 3.04102H1.5V3.54102V5.44102V5.94102H2H16H16.5V5.44102V3.54102V3.04102H16H2Z" stroke="#636363"/>
    </g>
    <defs>
        <clipPath id="clip0">
            <rect width="18" height="18" fill="white"/>
        </clipPath>
    </defs>
</svg>
