<svg width="16" height="17" viewBox="0 0 16 17" fill="none" xmlns="http://www.w3.org/2000/svg">
<path d="M7.89214 0.791016C7.88786 0.791016 7.87928 0.791016 7.86642 0.791016C3.5281 0.791016 0 4.31911 0 8.65742C0 10.4279 0.60445 12.1469 1.71046 13.5316L0.565868 16.1937C0.471557 16.4124 0.574442 16.6653 0.788786 16.7553C0.865949 16.7896 0.951687 16.7982 1.03314 16.7853L5.22999 16.048C6.07022 16.3524 6.95332 16.5067 7.84499 16.5024C12.1833 16.5024 15.7114 12.9743 15.7114 8.63599C15.72 4.31054 12.2176 0.795302 7.89214 0.791016ZM5.19998 6.29102H7.5149C7.75068 6.29102 7.94359 6.48392 7.94359 6.7197C7.94359 6.95548 7.75068 7.14839 7.5149 7.14839H5.19998C4.96421 7.14839 4.7713 6.95548 4.7713 6.7197C4.7713 6.48392 4.96421 6.29102 5.19998 6.29102ZM10.5157 10.0764H5.19998C4.96421 10.0764 4.7713 9.88347 4.7713 9.64769C4.7713 9.41191 4.96421 9.219 5.19998 9.219H10.5157C10.7515 9.219 10.9444 9.41191 10.9444 9.64769C10.9444 9.88347 10.7515 10.0764 10.5157 10.0764Z" fill="url(#paint0_linear)"/>
<defs>
<linearGradient id="paint0_linear" x1="0" y1="0.791016" x2="18.4876" y2="12.3511" gradientUnits="userSpaceOnUse">
<stop stop-color="#429FBA"/>
<stop offset="1" stop-color="#217E9A"/>
</linearGradient>
</defs>
</svg>
