<svg width="18" height="19" viewBox="0 0 18 19" fill="none" xmlns="http://www.w3.org/2000/svg">
<path d="M8.89214 1.29102H8.89264C13.4943 1.29558 17.22 5.03486 17.2114 9.63599C17.2114 9.63632 17.2114 9.63665 17.2114 9.63698L16.7114 9.63599C16.7114 13.9743 13.1833 17.5024 8.84499 17.5024L8.89214 1.29102ZM8.89214 1.29102H8.89212H8.89209H8.89207H8.89204H8.89202H8.89199H8.89196H8.89194H8.89191H8.89189H8.89186H8.89183H8.89181H8.89178H8.89176H8.89173H8.8917H8.89167H8.89165H8.89162H8.89159H8.89157H8.89154H8.89151H8.89148H8.89146H8.89143H8.8914H8.89137H8.89135H8.89132H8.89129H8.89126H8.89123H8.8912H8.89117H8.89115H8.89112H8.89109H8.89106H8.89103H8.891H8.89097H8.89094H8.89091H8.89088H8.89085H8.89082H8.89079H8.89076H8.89073H8.8907H8.89067H8.89064H8.89061H8.89058H8.89055H8.89052H8.89049H8.89046H8.89043H8.8904H8.89037H8.89033H8.8903H8.89027H8.89024H8.89021H8.89018H8.89014H8.89011H8.89008H8.89005H8.89002H8.88998H8.88995H8.88992H8.88988H8.88985H8.88982H8.88979H8.88975H8.88972H8.88969H8.88965H8.88962H8.88959H8.88955H8.88952H8.88948H8.88945H8.88942H8.88938H8.88935H8.88931H8.88928H8.88924H8.88921H8.88918H8.88914H8.88911H8.88907H8.88904H8.889H8.88896H8.88893H8.88889H8.88886H8.88882H8.88879H8.88875H8.88871H8.88868H8.88864H8.88861H8.88857H8.88853H8.8885H8.88846H8.88842H8.88839H8.88835H8.88831H8.88827H8.88824H8.8882H8.88816H8.88812H8.88809H8.88805H8.88801H8.88797H8.88793H8.8879H8.88786H8.88782H8.88778H8.88774H8.8877H8.88766H8.88763H8.88759H8.88755H8.88751H8.88747H8.88743H8.88739H8.88735H8.88731H8.88727H8.88723H8.88719H8.88715H8.88711H8.88707H8.88703H8.88699H8.88695H8.88691H8.88687H8.88683H8.88679H8.88674H8.8867H8.88666H8.88662H8.88658H8.88654H8.8865H8.88646H8.88641H8.88637H8.88633H8.88629H8.88624H8.8862H8.88616H8.88612H8.88608H8.88603H8.88599H8.88595H8.8859H8.88586H8.88582H8.88577H8.88573H8.88569H8.88564H8.8856H8.88556H8.88551H8.88547H8.88542H8.88538H8.88533H8.88529H8.88525H8.8852H8.88516H8.88511H8.88507H8.88502H8.88498H8.88493H8.88489H8.88484H8.8848H8.88475H8.8847H8.88466H8.88461H8.88457H8.88452H8.88447H8.88443H8.88438H8.88434H8.88429H8.88424H8.8842H8.88415H8.8841H8.88405H8.88401H8.88396H8.88391H8.88387H8.88382H8.88377H8.88372H8.88368H8.88363H8.88358H8.88353H8.88348H8.88343H8.88339H8.88334H8.88329H8.88324H8.88319H8.88314H8.88309H8.88304H8.883H8.88295H8.8829H8.88285H8.8828H8.88275H8.8827H8.88265H8.8826H8.88255H8.8825H8.88245H8.8824H8.88235H8.8823H8.88225H8.88219H8.88214H8.88209H8.88204H8.88199H8.88194H8.88189H8.88184H8.88178H8.88173H8.88168H8.88163H8.88158H8.88153H8.88147H8.88142H8.88137H8.88132H8.88126H8.88121H8.88116H8.88111H8.88105H8.881H8.88095H8.88089H8.88084H8.88079H8.88073H8.88068H8.88063H8.88057H8.88052H8.88046H8.88041H8.88036H8.8803H8.88025H8.88019H8.88014H8.88008H8.88003H8.87997H8.87992H8.87986H8.87981H8.87975H8.8797H8.87964H8.87959H8.87953H8.87947H8.87942H8.87936H8.87931H8.87925H8.87919H8.87914H8.87908H8.87902H8.87897H8.87891H8.87885H8.8788H8.87874H8.87868H8.87863H8.87857H8.87851H8.87845H8.8784H8.87834H8.87828H8.87822H8.87816H8.87811H8.87805H8.87799H8.87793H8.87787H8.87781H8.87776H8.8777H8.87764H8.87758H8.87752H8.87746H8.8774H8.87734H8.87728H8.87722H8.87716H8.8771H8.87704H8.87698H8.87692H8.87686H8.8768H8.87674H8.87668H8.87662H8.87656H8.8765H8.87644H8.87638H8.87632H8.87626H8.87619H8.87613H8.87607H8.87601H8.87595H8.87589H8.87582H8.87576H8.8757H8.87564H8.87558H8.87551H8.87545H8.87539H8.87533H8.87526H8.8752H8.87514H8.87507H8.87501H8.87495H8.87489H8.87482H8.87476H8.87469H8.87463H8.87457H8.8745H8.87444H8.87437H8.87431H8.87425H8.87418H8.87412H8.87405H8.87399H8.87392H8.87386H8.87379H8.87373H8.87366H8.8736H8.87353H8.87347H8.8734H8.87334H8.87327H8.8732H8.87314H8.87307H8.87301H8.87294H8.87287H8.87281H8.87274H8.87267H8.87261H8.87254H8.87247H8.87241H8.87234H8.87227H8.8722H8.87214H8.87207H8.872H8.87193H8.87187H8.8718H8.87173H8.87166H8.87159H8.87152H8.87146H8.87139H8.87132H8.87125H8.87118H8.87111H8.87104H8.87097H8.87091H8.87084H8.87077H8.8707H8.87063H8.87056H8.87049H8.87042H8.87035H8.87028H8.87021H8.87014H8.87007H8.87H8.86993H8.86985H8.86978H8.86971H8.86964H8.86957H8.8695H8.86943H8.86936H8.86929H8.86921H8.86914H8.86907H8.869H8.86893H8.86885H8.86878H8.86871H8.86864H8.86857H8.86849H8.86842H8.86835H8.86828H8.8682H8.86813H8.86806H8.86798H8.86791H8.86784H8.86776H8.86769H8.86761H8.86754H8.86747H8.86739H8.86732H8.86724H8.86717H8.8671H8.86702H8.86695H8.86687H8.8668H8.86672H8.86665H8.86657H8.8665H8.86642C4.25196 1.29102 0.5 5.04297 0.5 9.65742C0.5 11.4408 1.07617 13.1745 2.13519 14.6037L8.89214 1.29102ZM6.18734 17.5631C7.04364 17.8574 7.94054 18.0066 8.8462 18.0024L1.10676 16.9957L1.56587 17.1937L1.10653 16.9962L1.10666 16.9959C0.904002 17.4661 1.12098 18.0141 1.59046 18.2143C1.76333 18.29 1.94606 18.3053 2.11112 18.2792L2.11113 18.2793L2.11966 18.2778L6.18734 17.5631Z" stroke="#636363"/>
</svg>
