<svg width="33" height="33" viewBox="0 0 33 33" fill="none" xmlns="http://www.w3.org/2000/svg">
<circle cx="16.5" cy="16.5" r="16.5" fill="#F7F7F7"/>
<g clip-path="url(#clip0)">
<path d="M16.0289 10.6056L10.2551 16.3794C10.0904 16.5441 10 16.7638 10 17.0027C10 17.237 10.0904 17.4566 10.2551 17.6213L16.0289 23.3952C16.3701 23.7363 16.9254 23.7363 17.2663 23.3952L17.7908 22.871C17.9554 22.7063 18.0459 22.4866 18.0459 22.2522C18.0459 22.0179 17.9554 21.7906 17.7908 21.6261L14.4222 18.2502L25.1242 18.2502C25.6065 18.2502 26 17.8725 26 17.3901L26 16.6487C26 16.1663 25.6065 15.7503 25.1242 15.7503L14.3843 15.7503L17.7908 12.3553C17.9554 12.1908 18.0459 11.9769 18.0459 11.7425C18.0459 11.5081 17.9554 11.2917 17.7908 11.1268L17.2663 10.6042C16.9253 10.263 16.3701 10.2643 16.0289 10.6056Z" fill="#2D2D2D"/>
</g>
<defs>
<clipPath id="clip0">
<rect width="16" height="16" fill="white" transform="translate(10 25) rotate(-90)"/>
</clipPath>
</defs>
</svg>
