<svg width="23" height="23" viewBox="0 0 23 23" fill="none" xmlns="http://www.w3.org/2000/svg">
<path d="M11.4526 20.6574C9.5475 20.6574 7.6852 20.0924 6.10118 19.034C4.51716 17.9756 3.28257 16.4713 2.55353 14.7112C1.82449 12.9511 1.63374 11.0144 2.0054 9.14593C2.37706 7.27745 3.29444 5.56115 4.64154 4.21405C5.98864 2.86695 7.70494 1.94957 9.57342 1.57791C11.4419 1.20624 13.3786 1.397 15.1387 2.12604C16.8988 2.85508 18.4031 4.08967 19.4615 5.67369C20.5199 7.25771 21.0848 9.12001 21.0848 11.0251C21.0848 13.5797 20.07 16.0297 18.2636 17.8361C16.4572 19.6425 14.0072 20.6574 11.4526 20.6574ZM11.4526 2.76886C9.81965 2.76886 8.2234 3.25308 6.86567 4.16029C5.50794 5.06749 4.44972 6.35694 3.82482 7.86557C3.19993 9.3742 3.03643 11.0342 3.355 12.6358C3.67356 14.2373 4.45989 15.7085 5.61455 16.8631C6.7692 18.0178 8.24032 18.8041 9.84187 19.1227C11.4434 19.4412 13.1035 19.2777 14.6121 18.6528C16.1207 18.028 17.4102 16.9697 18.3174 15.612C19.2246 14.2543 19.7088 12.658 19.7088 11.0251C19.7088 8.8354 18.839 6.7354 17.2906 5.18706C15.7423 3.63871 13.6423 2.76886 11.4526 2.76886Z" fill="white"/>
<path d="M14.6107 15.153L10.7646 11.307V4.83276H12.1407V10.736L15.5808 14.1829L14.6107 15.153Z" fill="white"/>
</svg>
