<svg width="20" height="22" viewBox="0 0 20 22" fill="none" xmlns="http://www.w3.org/2000/svg">
<path d="M9.78244 19.0074C8.08948 19.0074 6.43453 18.5054 5.02688 17.5648C3.61923 16.6242 2.5221 15.2874 1.87423 13.7233C1.22637 12.1592 1.05685 10.4381 1.38713 8.77767C1.71741 7.11724 2.53265 5.59203 3.72976 4.39492C4.92687 3.19782 6.45208 2.38258 8.11251 2.0523C9.77295 1.72201 11.494 1.89153 13.0581 2.5394C14.6222 3.18727 15.9591 4.28439 16.8996 5.69204C17.8402 7.09969 18.3422 8.75464 18.3422 10.4476C18.3422 12.7178 17.4404 14.895 15.8351 16.5003C14.2298 18.1056 12.0526 19.0074 9.78244 19.0074ZM9.78244 3.11065C8.33133 3.11065 6.9128 3.54095 5.70625 4.34715C4.49969 5.15334 3.5593 6.29922 3.00398 7.63987C2.44866 8.98053 2.30337 10.4557 2.58646 11.879C2.86956 13.3022 3.56834 14.6095 4.59443 15.6356C5.62052 16.6617 6.92784 17.3605 8.35107 17.6436C9.7743 17.9267 11.2495 17.7814 12.5902 17.2261C13.9308 16.6707 15.0767 15.7304 15.8829 14.5238C16.6891 13.3172 17.1194 11.8987 17.1194 10.4476C17.1194 8.50172 16.3464 6.63554 14.9705 5.25959C13.5945 3.88365 11.7283 3.11065 9.78244 3.11065Z" fill="#636363"/>
<path d="M12.5887 14.1158L9.1709 10.698V4.94458H10.3937V10.1905L13.4508 13.2537L12.5887 14.1158Z" fill="#636363"/>
</svg>
