<svg width="44" height="44" viewBox="0 0 44 44" fill="none" xmlns="http://www.w3.org/2000/svg">
<circle cx="22" cy="22" r="22" fill="#F8F8F8"/>
<path fill-rule="evenodd" clip-rule="evenodd" d="M21.6198 24.7567L26.5517 29.8062C27.0465 30.3167 27.3684 30.3219 27.8722 29.8062L28.8617 28.7929C29.3465 28.2967 29.3794 27.9709 28.8617 27.4409L23.6403 22.0957L28.8622 16.7505C29.3513 16.2481 29.3608 15.909 28.8622 15.3981L27.8727 14.3852C27.3594 13.8595 27.0422 13.8838 26.5522 14.3852L21.6198 19.4348L16.6879 14.3857C16.1979 13.8843 15.8808 13.86 15.3675 14.3857L14.3779 15.3986C13.8789 15.9095 13.8879 16.2486 14.3779 16.7509L19.5994 22.0957L14.3779 27.4409C13.8603 27.9709 13.8879 28.2967 14.3779 28.7929L15.367 29.8062C15.8665 30.3219 16.1884 30.3167 16.6875 29.8062L21.6198 24.7567Z" fill="#2D2D2D"/>
</svg>
