<svg width="16" height="17" viewBox="0 0 16 17" fill="none" xmlns="http://www.w3.org/2000/svg">
<path fill-rule="evenodd" clip-rule="evenodd" d="M7.61983 10.7567L12.5517 15.8062C13.0465 16.3167 13.3684 16.3219 13.8722 15.8062L14.8617 14.7929C15.3465 14.2967 15.3794 13.9709 14.8617 13.4409L9.64031 8.09571L14.8622 2.75047C15.3513 2.24809 15.3608 1.90904 14.8622 1.39809L13.8727 0.385232C13.3594 -0.140482 13.0422 -0.116196 12.5522 0.385232L7.61983 5.43476L2.68793 0.385709C2.19793 -0.11572 1.88079 -0.140006 1.36745 0.385709L0.377928 1.39857C-0.121119 1.90952 -0.112072 2.24857 0.377928 2.75095L5.59936 8.09571L0.377928 13.4409C-0.139691 13.9709 -0.112072 14.2967 0.377928 14.7929L1.36698 15.8062C1.8665 16.3219 2.1884 16.3167 2.68745 15.8062L7.61983 10.7567Z" fill="#2D2D2D"/>
</svg>
