<svg width="44" height="44" viewBox="0 0 44 44" fill="none" xmlns="http://www.w3.org/2000/svg">
<circle cx="22" cy="22" r="22" fill="#F8F8F8"/>
<path fill-rule="evenodd" clip-rule="evenodd" d="M21.6712 24.5873L25.9866 29.5552C26.4195 30.0575 26.7011 30.0626 27.142 29.5552L28.0078 28.5583C28.4319 28.0701 28.4607 27.7497 28.0078 27.2282L23.4391 21.9694L28.0082 16.7105C28.4361 16.2163 28.4444 15.8827 28.0082 15.38L27.1424 14.3835C26.6932 13.8663 26.4157 13.8902 25.987 14.3835L21.6712 19.3514L17.3558 14.384C16.9271 13.8907 16.6496 13.8668 16.2004 14.384L15.3346 15.3805C14.8979 15.8832 14.9058 16.2167 15.3346 16.711L19.9033 21.9694L15.3346 27.2282C14.8817 27.7497 14.9058 28.0701 15.3346 28.5583L16.2 29.5552C16.6371 30.0626 16.9187 30.0575 17.3554 29.5552L21.6712 24.5873Z" fill="#2D2D2D"/>
</svg>
