<svg width="20" height="20" viewBox="0 0 20 20" fill="none" xmlns="http://www.w3.org/2000/svg">
<path d="M19.4487 9.34977C19.4523 10.7136 19.1287 12.059 18.5043 13.2764C17.764 14.7352 16.626 15.9622 15.2176 16.82C13.8092 17.6778 12.1861 18.1325 10.5302 18.1331C9.14535 18.1367 7.77923 17.818 6.54311 17.2031L0.5625 19.1664L2.55604 13.2764C1.93167 12.059 1.60812 10.7136 1.61173 9.34977C1.61237 7.71892 2.07403 6.12045 2.94501 4.7334C3.81598 3.34636 5.06187 2.22552 6.54311 1.49644C7.77923 0.881531 9.14535 0.56288 10.5302 0.566436H11.0548C13.2418 0.685261 15.3074 1.59436 16.8562 3.11966C18.4049 4.64496 19.328 6.67928 19.4487 8.8331V9.34977Z" stroke="#636363" stroke-linecap="round" stroke-linejoin="round"/>
</svg>
