<svg width="20" height="21" viewBox="0 0 20 21" fill="none" xmlns="http://www.w3.org/2000/svg">
<path d="M10 9.69004C9.39 9.69004 8.9 10.18 8.9 10.79C8.9 11.4 9.39 11.89 10 11.89C10.61 11.89 11.1 11.4 11.1 10.79C11.1 10.18 10.61 9.69004 10 9.69004ZM10 0.790039C4.48 0.790039 0 5.27004 0 10.79C0 16.31 4.48 20.79 10 20.79C15.52 20.79 20 16.31 20 10.79C20 5.27004 15.52 0.790039 10 0.790039ZM12.19 12.98L4 16.79L7.81 8.60004L16 4.79004L12.19 12.98Z" fill="url(#paint0_linear)"/>
<defs>
<linearGradient id="paint0_linear" x1="0" y1="0.790039" x2="23.2913" y2="15.6213" gradientUnits="userSpaceOnUse">
<stop stop-color="#429FBA"/>
<stop offset="1" stop-color="#217E9A"/>
</linearGradient>
</defs>
</svg>
