<svg width="28" height="28" viewBox="0 0 28 28" fill="none" xmlns="http://www.w3.org/2000/svg">
<path d="M26.149 13.635C23.5279 8.7894 18.9312 5.85718 13.8446 5.85718C8.75789 5.85718 4.15345 8.7894 1.55567 13.635L1.33789 14.0005L1.54011 14.3738C4.16122 19.2194 8.75789 22.1516 13.8446 22.1516C18.9312 22.1516 23.5357 19.2583 26.149 14.3738L26.3512 14.0005L26.149 13.635ZM13.8446 20.5572C9.46567 20.5572 5.44456 18.115 3.11122 14.0005C5.44456 9.88607 9.46567 7.44384 13.8446 7.44384C18.2234 7.44384 22.1979 9.89384 24.5701 14.0005C22.1979 18.115 18.2157 20.5572 13.8446 20.5572Z" fill="#636363"/>
<path d="M14.0691 8.68789C13.0145 8.69558 11.9859 9.01563 11.1131 9.60759C10.2403 10.1996 9.5625 11.0369 9.16532 12.0139C8.76814 12.9908 8.66939 14.0635 8.88153 15.0966C9.09367 16.1296 9.6072 17.0766 10.3572 17.818C11.1073 18.5594 12.0602 19.0618 13.0957 19.2619C14.1311 19.462 15.2026 19.3508 16.1749 18.9423C17.1471 18.5337 17.9765 17.8462 18.5583 16.9666C19.1401 16.087 19.4481 15.0547 19.4435 14.0001C19.4405 13.2981 19.2989 12.6036 19.027 11.9564C18.755 11.3092 18.3581 10.7221 17.8588 10.2286C17.3595 9.7351 16.7678 9.34498 16.1175 9.0806C15.4672 8.81622 14.7711 8.68276 14.0691 8.68789ZM14.0691 17.8034C13.3242 17.7958 12.5981 17.5682 11.9822 17.1492C11.3662 16.7302 10.8877 16.1386 10.6069 15.4486C10.3261 14.7586 10.2554 14.001 10.4037 13.271C10.5521 12.5409 10.9128 11.871 11.4406 11.3453C11.9685 10.8196 12.6399 10.4616 13.3705 10.3163C14.1011 10.1709 14.8584 10.2447 15.5473 10.5284C16.2361 10.812 16.8258 11.2929 17.2422 11.9105C17.6587 12.5282 17.8833 13.2552 17.888 14.0001C17.89 14.5015 17.7926 14.9982 17.6012 15.4616C17.4098 15.925 17.1283 16.3458 16.7731 16.6996C16.4179 17.0534 15.9959 17.3332 15.5318 17.5226C15.0676 17.7121 14.5704 17.8076 14.0691 17.8034Z" fill="#636363"/>
</svg>
