<svg width="12" height="22" viewBox="0 0 12 22" fill="none" xmlns="http://www.w3.org/2000/svg">
<path d="M5.96543 0C2.67654 0 0 2.67574 0 5.96552V17.2595C0 17.6627 0.326219 17.9889 0.729465 17.9889C1.13244 17.9889 1.45866 17.6627 1.45866 17.2595V5.96552C1.45866 3.48054 3.47997 1.45871 5.96543 1.45871C8.45117 1.45871 10.4724 3.48054 10.4724 5.96552V17.6094C10.4724 19.2258 9.15696 20.5414 7.54015 20.5414C7.52814 20.5414 7.51732 20.5478 7.50535 20.5484C7.49254 20.5478 7.48252 20.5414 7.46975 20.5414C5.85308 20.5414 4.53761 19.2258 4.53761 17.6094V10.6247C4.53761 9.83698 5.17781 9.19673 5.96543 9.19673C6.75324 9.19673 7.39348 9.83698 7.39348 10.6247V17.2595C7.39348 17.6627 7.72028 17.9889 8.12272 17.9889C8.52508 17.9889 8.85215 17.6627 8.85215 17.2595V10.6247C8.85215 9.03289 7.55728 7.73807 5.96543 7.73807C4.37381 7.73807 3.07895 9.03293 3.07895 10.6247V17.6094C3.07895 20.03 5.04823 22 7.46971 22C7.48248 22 7.49249 21.9936 7.50531 21.9929C7.51732 21.9936 7.52814 22 7.54011 22C9.96101 22 11.9308 20.03 11.9308 17.6094V5.96552C11.9309 2.67574 9.25437 0 5.96543 0Z" fill="#B0B0B0"/>
</svg>
