<svg width="12" height="24" viewBox="0 0 12 24" fill="none"
    xmlns="http://www.w3.org/2000/svg">
    <path d="M10.366 5.46383H12V17.9745C12 19.6426 11.4128 21.0638 10.2383 22.2383C9.06383 23.4128 7.65106 24 6 24C4.34894 24 2.93617 23.4128 1.7617 22.2383C0.587234 21.0638 0 19.6426 0 17.9745V4.39149C0 3.16596 0.425532 2.12766 1.2766 1.2766C2.12766 0.425532 3.15745 0 4.36596 0C5.57447 0 6.60426 0.425532 7.45532 1.2766C8.30638 2.12766 8.73191 3.16596 8.73191 4.39149V15.8298C8.73191 16.5787 8.45957 17.217 7.91489 17.7447C7.37021 18.2723 6.7234 18.5362 5.97447 18.5362C5.22553 18.5362 4.58723 18.2723 4.05957 17.7447C3.53191 17.217 3.26809 16.5787 3.26809 15.8298V5.46383H4.90213V15.8298C4.90213 16.1021 5.01277 16.3489 5.23404 16.5702C5.45532 16.7915 5.71064 16.9021 6 16.9021C6.28936 16.9021 6.54468 16.7915 6.76596 16.5702C6.98723 16.3489 7.09787 16.1021 7.09787 15.8298V4.39149C7.09787 3.64255 6.82553 2.99574 6.28085 2.45106C5.73617 1.90638 5.08936 1.63404 4.34043 1.63404C3.59149 1.63404 2.95319 1.90638 2.42553 2.45106C1.89787 2.99574 1.63404 3.64255 1.63404 4.39149V17.9745C1.63404 19.2 2.05957 20.2383 2.91064 21.0894C3.7617 21.9404 4.79149 22.366 6 22.366C7.20851 22.366 8.2383 21.9404 9.08936 21.0894C9.94042 20.2383 10.366 19.2 10.366 17.9745V5.46383Z" fill="#636363"/>
</svg>
