<svg width="44" height="44" viewBox="0 0 44 44" fill="none"
    xmlns="http://www.w3.org/2000/svg">
    <circle cx="22" cy="22" r="22" fill="#F8F8F8"/>
    <path d="M34.2596 18.4344H32.0891C31.9071 17.8402 31.6688 17.2663 31.3796 16.7196L32.9129 15.1863C33.241 14.8582 33.4219 14.4211 33.4219 13.9556C33.4219 13.4906 33.241 13.0535 32.9129 12.7254L31.2723 11.0849C30.6167 10.4292 29.4688 10.4275 28.812 11.0849L27.2787 12.6182C26.7326 12.3289 26.1581 12.0912 25.5639 11.9086V9.73876C25.5639 8.77992 24.7836 7.99963 23.8248 7.99963H21.5059C20.5471 7.99963 19.7668 8.77992 19.7668 9.73876V11.9092C19.1726 12.0918 18.5987 12.3295 18.052 12.6188L16.5181 11.0854C15.8399 10.4072 14.7361 10.4072 14.0578 11.0854L12.4167 12.726C11.739 13.4043 11.739 14.508 12.4167 15.1863L13.95 16.7202C13.6607 17.2663 13.423 17.8408 13.2404 18.435H11.0712C10.1123 18.435 9.33203 19.2153 9.33203 20.1741V22.493C9.33203 23.4512 10.1123 24.2315 11.0712 24.2315H13.2416C13.4242 24.8257 13.6619 25.3996 13.9512 25.9463L12.4178 27.4802C11.7396 28.1585 11.7396 29.2622 12.4178 29.9405L14.0584 31.5817C14.7367 32.2593 15.8404 32.2593 16.5187 31.5817L18.0526 30.0483C18.5987 30.3376 19.1732 30.5753 19.7674 30.7579V32.9272C19.7674 33.886 20.5477 34.6663 21.5065 34.6663H23.8254C24.7842 34.6663 25.5645 33.886 25.5645 32.9272V30.7567C26.1587 30.5741 26.7332 30.3364 27.2793 30.0472L28.8126 31.5811C29.47 32.2379 30.6178 32.2367 31.2729 31.5811L32.9135 29.9405C33.2416 29.6124 33.4225 29.1753 33.4225 28.7104C33.4225 28.2449 33.2416 27.8083 32.9135 27.4802L31.3801 25.9463C31.6694 25.4002 31.9071 24.8257 32.0897 24.2315H34.2596C35.2184 24.2315 35.9987 23.4512 35.9987 22.4924V20.1735C35.9987 19.2147 35.2184 18.4344 34.2596 18.4344ZM34.8393 22.4924C34.8393 22.8118 34.5796 23.0721 34.2596 23.0721H31.6509C31.3865 23.0721 31.1558 23.2512 31.0897 23.5069C30.8845 24.2982 30.572 25.0535 30.1599 25.7515C30.0259 25.9793 30.0625 26.2692 30.2491 26.4559L32.0926 28.2999C32.2016 28.4089 32.2619 28.5544 32.2619 28.7104C32.2619 28.8663 32.2016 29.0118 32.0926 29.1208L30.452 30.7614C30.2341 30.9793 29.8497 30.9793 29.6312 30.7614L27.7877 28.9179C27.601 28.7306 27.3112 28.6947 27.0828 28.8286C26.3859 29.2402 25.6306 29.5533 24.8387 29.7579C24.5836 29.8234 24.4045 30.0541 24.4045 30.3185V32.9272C24.4045 33.2466 24.1448 33.5069 23.8248 33.5069H21.5059C21.1865 33.5069 20.9262 33.2466 20.9262 32.9272V30.3185C20.9262 30.0541 20.7471 29.8234 20.4915 29.7573C19.7001 29.5527 18.9448 29.2402 18.2468 28.828C18.1552 28.7735 18.0538 28.7475 17.9523 28.7475C17.8022 28.7475 17.6538 28.8054 17.5419 28.9173L15.6984 30.7608C15.4717 30.9869 15.1042 30.9869 14.8775 30.7608L13.237 29.1202C13.0103 28.8935 13.0103 28.5254 13.237 28.2993L15.0804 26.4559C15.2677 26.2686 15.3042 25.9788 15.1697 25.7515C14.7581 25.0535 14.4451 24.2988 14.2404 23.5069C14.1749 23.2512 13.9442 23.0721 13.6799 23.0721H11.0712C10.7517 23.0721 10.4915 22.8118 10.4915 22.4924V20.1735C10.4915 19.8541 10.7517 19.5938 11.0712 19.5938H13.6799C13.9442 19.5938 14.1749 19.4147 14.241 19.1591C14.4457 18.3678 14.7581 17.6124 15.1703 16.9144C15.3048 16.6866 15.2683 16.3967 15.081 16.2101L13.2375 14.3666C13.0115 14.1405 13.0115 13.7724 13.2375 13.5457L14.8781 11.9051C15.1048 11.6785 15.4723 11.6791 15.699 11.9051L17.5425 13.7486C17.7297 13.9359 18.019 13.973 18.2468 13.8379C18.9448 13.4263 19.6996 13.1133 20.4915 12.9086C20.7471 12.8425 20.9262 12.6118 20.9262 12.3475V9.73876C20.9262 9.41934 21.1865 9.15905 21.5059 9.15905H23.8248C24.1448 9.15905 24.4045 9.41934 24.4045 9.73876V12.3475C24.4045 12.6118 24.5836 12.8425 24.8393 12.9086C25.6312 13.1133 26.3865 13.4263 27.0833 13.8379C27.3117 13.9724 27.6016 13.9364 27.7883 13.7486L29.6317 11.9051C29.8503 11.686 30.2346 11.6866 30.4526 11.9051L32.0932 13.5457C32.2022 13.6547 32.2625 13.8008 32.2625 13.9562C32.2625 14.1115 32.2022 14.2576 32.0932 14.3666L30.2497 16.2101C30.063 16.3973 30.0259 16.6872 30.1604 16.9144C30.5726 17.6124 30.8851 18.3672 31.0903 19.1591C31.1558 19.4147 31.3865 19.5938 31.6509 19.5938H34.2596C34.5796 19.5938 34.8393 19.8541 34.8393 20.1735V22.4924Z" fill="#2D2D2D"/>
    <path d="M22.6666 16.1165C19.7901 16.1165 17.4492 18.4573 17.4492 21.3338C17.4492 24.2104 19.7901 26.5512 22.6666 26.5512C25.5437 26.5512 27.884 24.2104 27.884 21.3338C27.884 18.4573 25.5437 16.1165 22.6666 16.1165ZM22.6666 25.3918C20.4289 25.3918 18.6086 23.5715 18.6086 21.3338C18.6086 19.0962 20.4289 17.2759 22.6666 17.2759C24.9037 17.2759 26.7246 19.0962 26.7246 21.3338C26.7246 23.5715 24.9037 25.3918 22.6666 25.3918Z" fill="#2D2D2D"/>
</svg>
