<svg width="24" height="20" viewBox="0 0 24 20" fill="none" xmlns="http://www.w3.org/2000/svg">
<path d="M21.6043 2.23001C21.0684 1.70198 20.4321 1.28311 19.7318 0.997326C19.0315 0.711545 18.2808 0.564453 17.5228 0.564453C16.7647 0.564453 16.0141 0.711545 15.3138 0.997326C14.6135 1.28311 13.9772 1.70198 13.4413 2.23001L12.3291 3.32534L11.2169 2.23001C10.1344 1.16392 8.66627 0.565006 7.13541 0.565006C5.60454 0.565006 4.13638 1.16392 3.0539 2.23001C1.97141 3.29609 1.36328 4.74201 1.36328 6.24967C1.36328 7.75734 1.97141 9.20326 3.0539 10.2693L4.16608 11.3647L12.3291 19.404L20.4921 11.3647L21.6043 10.2693C22.1404 9.74156 22.5658 9.11491 22.8559 8.42521C23.1461 7.7355 23.2955 6.99624 23.2955 6.24967C23.2955 5.5031 23.1461 4.76385 22.8559 4.07414C22.5658 3.38443 22.1404 2.75779 21.6043 2.23001V2.23001Z" stroke="#636363" stroke-linecap="round" stroke-linejoin="round"/>
</svg>
