<svg width="16" height="19" viewBox="0 0 16 19" fill="none" xmlns="http://www.w3.org/2000/svg">
<path d="M14.9594 6.91381L14.9601 6.91442C15.2997 7.21096 15.5 7.65288 15.5 8.12574V17.1753C15.5 17.4772 15.3844 17.7631 15.1842 17.971C14.9847 18.1783 14.7181 18.291 14.4444 18.291H11.7778C11.5041 18.291 11.2376 18.1783 11.038 17.971C10.8379 17.7631 10.7222 17.4772 10.7222 17.1753V12.5591C10.7222 12.2489 10.6037 11.9477 10.3872 11.7227C10.1699 11.4971 9.87123 11.3667 9.55556 11.3667H6.44444C6.12877 11.3667 5.83005 11.4971 5.61285 11.7227C5.39627 11.9477 5.27778 12.2489 5.27778 12.5591V17.1753C5.27778 17.4772 5.16214 17.7631 4.96198 17.971C4.76243 18.1783 4.49592 18.291 4.22222 18.291H1.55556C1.41963 18.291 1.28455 18.2632 1.15787 18.2087C1.03114 18.1542 0.914729 18.0738 0.815802 17.971C0.716837 17.8682 0.637375 17.7452 0.58284 17.6084C0.528294 17.4716 0.5 17.3244 0.5 17.1753V8.12481C0.5 7.65311 0.700127 7.21086 1.04038 6.91311L1.04061 6.91291L7.04044 1.65612C7.31159 1.41877 7.6516 1.29102 8 1.29102C8.3484 1.29102 8.68841 1.41877 8.95956 1.65612L14.9594 6.91381Z" stroke="#636363"/>
</svg>
