<svg width="16" height="19" viewBox="0 0 16 19" fill="none" xmlns="http://www.w3.org/2000/svg">
<path d="M6.71111 1.2799C7.07179 0.964176 7.52831 0.791016 8 0.791016C8.47169 0.791016 8.92821 0.964176 9.28889 1.2799L15.2889 6.53776C15.7404 6.93199 16 7.5127 16 8.12574V17.1753C16 17.6038 15.8361 18.0148 15.5444 18.3178C15.2527 18.6208 14.857 18.791 14.4444 18.791H11.7778C11.3652 18.791 10.9696 18.6208 10.6778 18.3178C10.3861 18.0148 10.2222 17.6038 10.2222 17.1753V12.5591C10.2222 12.3755 10.152 12.1994 10.027 12.0695C9.90194 11.9397 9.73237 11.8667 9.55556 11.8667H6.44444C6.26763 11.8667 6.09806 11.9397 5.97304 12.0695C5.84802 12.1994 5.77778 12.3755 5.77778 12.5591V17.1753C5.77778 17.6038 5.61389 18.0148 5.32217 18.3178C5.03044 18.6208 4.63478 18.791 4.22222 18.791H1.55556C1.35128 18.791 1.149 18.7492 0.96027 18.668C0.771542 18.5868 0.600058 18.4678 0.455612 18.3178C0.311165 18.1678 0.196584 17.9897 0.11841 17.7936C0.0402357 17.5976 0 17.3875 0 17.1753V8.12481C0 7.5127 0.259555 6.93199 0.711111 6.53684L6.71111 1.2799Z" fill="url(#paint0_linear)"/>
<defs>
<linearGradient id="paint0_linear" x1="0" y1="0.791016" x2="19.834" y2="12.0174" gradientUnits="userSpaceOnUse">
<stop stop-color="#429FBA"/>
<stop offset="1" stop-color="#217E9A"/>
</linearGradient>
</defs>
</svg>
