<svg width="20" height="20" viewBox="0 0 20 20" fill="none" xmlns="http://www.w3.org/2000/svg">
<g clip-path="url(#clip0)">
<path d="M14.5438 19.9998C14.4038 19.9998 14.2604 19.9823 14.1188 19.9448L1.23294 16.494C0.349606 16.2506 -0.177061 15.3356 0.0546058 14.4523L1.68044 8.39229C1.74044 8.16979 1.96877 8.04063 2.19044 8.09729C2.41294 8.15646 2.54461 8.38563 2.48544 8.60729L0.860439 14.6656C0.744606 15.1073 1.00961 15.5673 1.45211 15.6898L14.3329 19.139C14.7754 19.2556 15.2321 18.9923 15.3471 18.5523L15.9979 16.1406C16.0579 15.9181 16.2863 15.7856 16.5088 15.8465C16.7313 15.9065 16.8621 16.1356 16.8029 16.3573L16.1529 18.7656C15.9571 19.5073 15.2821 19.9998 14.5438 19.9998V19.9998Z" fill="#F8F8F8"/>
<path d="M18.332 15.0003H4.9987C4.07953 15.0003 3.33203 14.2528 3.33203 13.3337V3.33366C3.33203 2.41449 4.07953 1.66699 4.9987 1.66699H18.332C19.2512 1.66699 19.9987 2.41449 19.9987 3.33366V13.3337C19.9987 14.2528 19.2512 15.0003 18.332 15.0003ZM4.9987 2.50033C4.53953 2.50033 4.16536 2.87449 4.16536 3.33366V13.3337C4.16536 13.7928 4.53953 14.167 4.9987 14.167H18.332C18.7912 14.167 19.1654 13.7928 19.1654 13.3337V3.33366C19.1654 2.87449 18.7912 2.50033 18.332 2.50033H4.9987Z" fill="#F8F8F8"/>
<path d="M7.49869 7.50032C6.57953 7.50032 5.83203 6.75282 5.83203 5.83366C5.83203 4.91449 6.57953 4.16699 7.49869 4.16699C8.41786 4.16699 9.16536 4.91449 9.16536 5.83366C9.16536 6.75282 8.41786 7.50032 7.49869 7.50032ZM7.49869 5.00032C7.03953 5.00032 6.66536 5.37449 6.66536 5.83366C6.66536 6.29282 7.03953 6.66699 7.49869 6.66699C7.95786 6.66699 8.33203 6.29282 8.33203 5.83366C8.33203 5.37449 7.95786 5.00032 7.49869 5.00032Z" fill="#F8F8F8"/>
<path d="M3.8075 14.1086C3.70083 14.1086 3.59417 14.0678 3.5125 13.987C3.35 13.8245 3.35 13.5603 3.5125 13.3978L7.44833 9.46199C7.91999 8.99032 8.74416 8.99032 9.21582 9.46199L10.3875 10.6337L13.6308 6.74199C13.8666 6.45949 14.2133 6.29533 14.5825 6.29199H14.5916C14.9566 6.29199 15.3025 6.45033 15.5408 6.72782L19.8991 11.8128C20.0491 11.987 20.0291 12.2503 19.8541 12.4003C19.68 12.5503 19.4175 12.5311 19.2666 12.3553L14.9083 7.27032C14.8275 7.17699 14.7158 7.12532 14.5916 7.12532C14.505 7.11782 14.3525 7.17782 14.2716 7.27532L10.7358 11.5178C10.6608 11.6078 10.5517 11.662 10.4342 11.667C10.3158 11.6753 10.2033 11.6286 10.1208 11.5453L8.62666 10.0512C8.46916 9.89449 8.19499 9.89449 8.03749 10.0512L4.10167 13.987C4.02083 14.0678 3.91417 14.1086 3.8075 14.1086V14.1086Z" fill="#F8F8F8"/>
</g>
<defs>
<clipPath id="clip0">
<rect width="20" height="20" fill="white"/>
</clipPath>
</defs>
</svg>
