<svg width="24" height="20" viewBox="0 0 24 20" fill="none" xmlns="http://www.w3.org/2000/svg">
<path d="M21.2019 2.35025C20.6772 1.83325 20.0542 1.42314 19.3685 1.14333C18.6828 0.863516 17.9479 0.719498 17.2056 0.719498C16.4634 0.719498 15.7285 0.863516 15.0428 1.14333C14.3571 1.42314 13.7341 1.83325 13.2094 2.35025L12.1205 3.42269L11.0315 2.35025C9.97166 1.30644 8.53418 0.720039 7.0353 0.720039C5.53643 0.720039 4.09894 1.30644 3.03908 2.35025C1.97921 3.39405 1.38379 4.80976 1.38379 6.28592C1.38379 7.76209 1.97921 9.17779 3.03908 10.2216L4.12802 11.294L12.1205 19.1654L20.1129 11.294L21.2019 10.2216C21.7268 9.70484 22.1432 9.09129 22.4273 8.416C22.7115 7.7407 22.8577 7.01689 22.8577 6.28592C22.8577 5.55495 22.7115 4.83114 22.4273 4.15585C22.1432 3.48055 21.7268 2.867 21.2019 2.35025V2.35025Z" stroke="#F8F8F8" stroke-width="0.979105" stroke-linecap="round" stroke-linejoin="round"/>
</svg>
