<svg width="22" height="20" viewBox="0 0 22 20" fill="none" xmlns="http://www.w3.org/2000/svg">
<path d="M20.2019 2.35025C19.6772 1.83325 19.0542 1.42314 18.3685 1.14333C17.6828 0.863516 16.9479 0.719498 16.2056 0.719498C15.4634 0.719498 14.7285 0.863516 14.0428 1.14333C13.3571 1.42314 12.7341 1.83325 12.2094 2.35025L11.1205 3.42269L10.0315 2.35025C8.97166 1.30644 7.53418 0.720039 6.0353 0.720039C4.53643 0.720039 3.09894 1.30644 2.03908 2.35025C0.979215 3.39405 0.383789 4.80976 0.383789 6.28592C0.383789 7.76209 0.979215 9.17779 2.03908 10.2216L3.12802 11.294L11.1205 19.1654L19.1129 11.294L20.2019 10.2216C20.7268 9.70484 21.1432 9.09129 21.4273 8.416C21.7115 7.7407 21.8577 7.01689 21.8577 6.28592C21.8577 5.55495 21.7115 4.83114 21.4273 4.15585C21.1432 3.48055 20.7268 2.867 20.2019 2.35025Z" fill="#F44336"/>
</svg>
