<svg width="33" height="33" viewBox="0 0 33 33" fill="none" xmlns="http://www.w3.org/2000/svg">
<circle cx="16.5" cy="16.5" r="16.5" fill="#F7F7F7"/>
<path d="M17.6654 11.7867C17.4814 11.7867 17.332 11.6373 17.332 11.4533V10.3333C17.332 9.966 17.0327 9.66667 16.6654 9.66667C16.298 9.66667 15.9987 9.966 15.9987 10.3333V11.4533C15.9987 11.6373 15.8494 11.7867 15.6654 11.7867C15.4814 11.7867 15.332 11.638 15.332 11.4533V10.3333C15.332 9.99586 15.458 9.68731 15.6654 9.45222C15.9098 9.17506 16.2675 9 16.6654 9C17.0632 9 17.4209 9.17506 17.6654 9.45222C17.8727 9.68731 17.9987 9.99586 17.9987 10.3333V11.4533C17.9987 11.638 17.8494 11.7867 17.6654 11.7867Z" fill="#2D2D2D" stroke="#2D2D2D" stroke-width="21.3333"/>
<path d="M16.6654 25.0001C15.8176 25.0001 15.074 24.5457 14.6654 23.8676C14.4538 23.5166 14.332 23.1056 14.332 22.6667C14.332 22.4827 14.4814 22.3334 14.6654 22.3334C14.8494 22.3334 14.9987 22.4827 14.9987 22.6667C14.9987 23.5854 15.7467 24.3334 16.6654 24.3334C17.584 24.3334 18.332 23.5854 18.332 22.6667C18.332 22.4827 18.4814 22.3334 18.6654 22.3334C18.8494 22.3334 18.9987 22.4827 18.9987 22.6667C18.9987 23.1056 18.8769 23.5166 18.6654 23.8676C18.2567 24.5457 17.5131 25.0001 16.6654 25.0001Z" fill="#2D2D2D" stroke="#2D2D2D" stroke-width="21.3333"/>
<mask id="path-4-inside-1" fill="white">
<path d="M22.3333 23H11C10.4487 23 10 22.5513 10 22C10 21.7073 10.1273 21.4307 10.35 21.24C11.4007 20.352 12 19.06 12 17.692V15.6667C12 13.0933 14.0933 11 16.6667 11C19.24 11 21.3333 13.0933 21.3333 15.6667V17.692C21.3333 19.0607 21.9327 20.352 22.978 21.2353C23.206 21.4307 23.3333 21.7073 23.3333 22C23.3333 22.5513 22.8853 23 22.3333 23ZM16.6667 11.6667C14.4607 11.6667 12.6667 13.4607 12.6667 15.6667V17.692C12.6667 19.2573 11.9813 20.734 10.786 21.7447C10.7093 21.81 10.6667 21.9027 10.6667 22C10.6667 22.184 10.816 22.3333 11 22.3333H22.3333C22.5173 22.3333 22.6667 22.184 22.6667 22C22.6667 21.9027 22.624 21.81 22.55 21.7467C21.3527 20.734 20.6667 19.2567 20.6667 17.692V15.6667C20.6667 13.4607 18.8727 11.6667 16.6667 11.6667Z"/>
</mask>
<path d="M22.3333 23H11C10.4487 23 10 22.5513 10 22C10 21.7073 10.1273 21.4307 10.35 21.24C11.4007 20.352 12 19.06 12 17.692V15.6667C12 13.0933 14.0933 11 16.6667 11C19.24 11 21.3333 13.0933 21.3333 15.6667V17.692C21.3333 19.0607 21.9327 20.352 22.978 21.2353C23.206 21.4307 23.3333 21.7073 23.3333 22C23.3333 22.5513 22.8853 23 22.3333 23ZM16.6667 11.6667C14.4607 11.6667 12.6667 13.4607 12.6667 15.6667V17.692C12.6667 19.2573 11.9813 20.734 10.786 21.7447C10.7093 21.81 10.6667 21.9027 10.6667 22C10.6667 22.184 10.816 22.3333 11 22.3333H22.3333C22.5173 22.3333 22.6667 22.184 22.6667 22C22.6667 21.9027 22.624 21.81 22.55 21.7467C21.3527 20.734 20.6667 19.2567 20.6667 17.692V15.6667C20.6667 13.4607 18.8727 11.6667 16.6667 11.6667Z" fill="#2D2D2D"/>
<path d="M10.35 21.24L-3.42083 4.94659L-3.47334 4.99097L-3.52556 5.03569L10.35 21.24ZM22.978 21.2353L36.8577 5.03452L36.8027 4.98743L36.7474 4.94071L22.978 21.2353ZM10.786 21.7447L-2.98799 5.45393L-3.01954 5.48061L-3.05098 5.5074L10.786 21.7447ZM22.55 21.7467L36.4215 5.5389L36.3741 5.49831L36.3265 5.45801L22.55 21.7467ZM22.3333 1.66668H11V44.3333H22.3333V1.66668ZM11 1.66668C22.2307 1.66668 31.3333 10.7693 31.3333 22H-11.3333C-11.3333 34.3334 -1.33341 44.3333 11 44.3333V1.66668ZM31.3333 22C31.3333 27.9444 28.7319 33.5856 24.2256 37.4443L-3.52556 5.03569C-8.4772 9.27572 -11.3333 15.4703 -11.3333 22H31.3333ZM24.1208 37.5334C29.9558 32.6019 33.3333 25.3548 33.3333 17.692H-9.33333C-9.33333 12.7653 -7.15442 8.10214 -3.42083 4.94659L24.1208 37.5334ZM33.3333 17.692V15.6667H-9.33333V17.692H33.3333ZM33.3333 15.6667C33.3333 24.8754 25.8754 32.3333 16.6667 32.3333V-10.3333C2.31126 -10.3333 -9.33333 1.31126 -9.33333 15.6667H33.3333ZM16.6667 32.3333C7.45794 32.3333 1.04904e-05 24.8754 1.04904e-05 15.6667H42.6667C42.6667 1.31126 31.0221 -10.3333 16.6667 -10.3333V32.3333ZM1.04904e-05 15.6667V17.692H42.6667V15.6667H1.04904e-05ZM1.04904e-05 17.692C1.04904e-05 25.3395 3.36546 32.5924 9.20863 37.53L36.7474 4.94071C40.4999 8.11166 42.6667 12.7819 42.6667 17.692H1.04904e-05ZM9.09836 37.4362C4.66299 33.6363 2.00001 28.0251 2.00001 22H44.6667C44.6667 15.3896 41.749 9.22509 36.8577 5.03452L9.09836 37.4362ZM2.00001 22C2.00001 10.7785 11.094 1.66668 22.3333 1.66668V44.3333C34.6767 44.3333 44.6667 34.3242 44.6667 22H2.00001ZM16.6667 -9.66667C2.6786 -9.66667 -8.66666 1.67859 -8.66666 15.6667H34C34 25.2427 26.2427 33 16.6667 33V-9.66667ZM-8.66666 15.6667V17.692H34V15.6667H-8.66666ZM-8.66666 17.692C-8.66666 12.9782 -6.58587 8.49597 -2.98799 5.45393L24.56 38.0354C30.5485 32.972 34 25.5365 34 17.692H-8.66666ZM-3.05098 5.5074C-7.80833 9.56149 -10.6667 15.5548 -10.6667 22H32C32 28.2506 29.227 34.0585 24.623 37.982L-3.05098 5.5074ZM-10.6667 22C-10.6667 33.9661 -0.966072 43.6667 11 43.6667V1.00001C22.5981 1.00001 32 10.4019 32 22H-10.6667ZM11 43.6667H22.3333V1.00001H11V43.6667ZM22.3333 43.6667C34.2994 43.6667 44 33.9661 44 22H1.33335C1.33335 10.4019 10.7353 1.00001 22.3333 1.00001V43.6667ZM44 22C44 15.6664 41.2289 9.65334 36.4215 5.5389L8.67849 37.9545C4.01909 33.9667 1.33335 28.1389 1.33335 22H44ZM36.3265 5.45801C39.9116 8.4902 42 12.9665 42 17.692H-0.666656C-0.666656 25.5468 2.79376 32.9778 8.77357 38.0353L36.3265 5.45801ZM42 17.692V15.6667H-0.666656V17.692H42ZM42 15.6667C42 1.67859 30.6547 -9.66667 16.6667 -9.66667V33C7.0906 33 -0.666656 25.2427 -0.666656 15.6667H42Z" fill="#2D2D2D" mask="url(#path-4-inside-1)"/>
<line x1="11.576" y1="25.735" x2="21.576" y2="9.735" stroke="#2D2D2D"/>
</svg>
