<svg width="22" height="23" viewBox="0 0 22 23" fill="none" xmlns="http://www.w3.org/2000/svg">
<path d="M6.79079 14.8845H8.07815C8.17256 14.8845 8.2498 14.8073 8.2498 14.7128V8.1902C8.2498 8.0958 8.17256 8.01855 8.07815 8.01855H6.79079C6.69638 8.01855 6.61914 8.0958 6.61914 8.1902V14.7128C6.61914 14.8073 6.69638 14.8845 6.79079 14.8845ZM10.9962 13.8117C11.4704 13.8117 11.8544 13.4276 11.8544 12.9749C11.8544 12.4793 11.4704 12.0952 10.9962 12.0952C10.522 12.0952 10.1379 12.4793 10.1379 12.9749C10.1379 13.4276 10.522 13.8117 10.9962 13.8117ZM10.9962 10.8078C11.4704 10.8078 11.8544 10.4238 11.8544 9.97106C11.8544 9.47542 11.4704 9.09136 10.9962 9.09136C10.522 9.09136 10.1379 9.47542 10.1379 9.97106C10.1379 10.4238 10.522 10.8078 10.9962 10.8078Z" fill="white"/>
<path d="M18.8923 2.86914H3.10066C2.72088 2.86914 2.41406 3.17596 2.41406 3.55573V19.3474C2.41406 19.7272 2.72088 20.034 3.10066 20.034H18.8923C19.2721 20.034 19.5789 19.7272 19.5789 19.3474V3.55573C19.5789 3.17596 19.2721 2.86914 18.8923 2.86914ZM18.0341 18.4892H3.9589V4.41398H18.0341V18.4892Z" fill="white"/>
<path d="M13.9138 14.8845H15.2012C15.2956 14.8845 15.3728 14.8073 15.3728 14.7128V8.1902C15.3728 8.0958 15.2956 8.01855 15.2012 8.01855H13.9138C13.8194 8.01855 13.7422 8.0958 13.7422 8.1902V14.7128C13.7422 14.8073 13.8194 14.8845 13.9138 14.8845Z" fill="white"/>
</svg>
