<svg width="20" height="20" viewBox="0 0 20 20" fill="none"
    xmlns="http://www.w3.org/2000/svg">
    <path d="M17 1.5H3C2.60217 1.5 2.22064 1.65804 1.93934 1.93934C1.65804 2.22064 1.5 2.60217 1.5 3V17C1.5 17.3978 1.65804 17.7794 1.93934 18.0607C2.22065 18.342 2.60218 18.5 3 18.5H17C17.3978 18.5 17.7794 18.342 18.0607 18.0607C18.342 17.7794 18.5 17.3978 18.5 17V3C18.5 2.60218 18.342 2.22065 18.0607 1.93934C17.7794 1.65804 17.3978 1.5 17 1.5ZM1.23223 1.23223C1.70107 0.763392 2.33696 0.5 3 0.5H17C17.663 0.5 18.2989 0.763392 18.7678 1.23223C19.2366 1.70107 19.5 2.33696 19.5 3V17C19.5 17.663 19.2366 18.2989 18.7678 18.7678C18.2989 19.2366 17.663 19.5 17 19.5H3C2.33696 19.5 1.70107 19.2366 1.23223 18.7678C0.763392 18.2989 0.5 17.663 0.5 17V3C0.5 2.33696 0.763392 1.70107 1.23223 1.23223Z" stroke="#636363"/>
    <path d="M9.5 5.5H10.5V14.5H9.5V5.5Z" stroke="#636363"/>
    <path d="M13.5 11.5H14.5V14.5H13.5V11.5Z" stroke="#636363"/>
    <path d="M5.5 8.5H6.5V14.5H5.5V8.5Z" stroke="#636363"/>
</svg>
