<svg width="20" height="20" viewBox="0 0 20 20" fill="none" xmlns="http://www.w3.org/2000/svg">
<path d="M9.601 0C4.306 0 0 4.307 0 9.6C0 14.893 4.306 19.2 9.601 19.2C14.894 19.2 19.201 14.893 19.201 9.6C19.201 4.307 14.894 0 9.601 0ZM17.789 9.6C17.789 11.473 17.153 13.2 16.093 14.58C15.793 14.346 15.474 13.713 15.774 13.057C16.077 12.397 16.156 10.869 16.086 10.274C16.02 9.68 15.711 8.249 14.872 8.235C14.034 8.223 13.459 7.946 12.961 6.952C11.928 4.884 14.9 4.487 13.867 3.343C13.578 3.021 12.084 4.665 11.865 2.474C11.851 2.317 12 2.082 12.201 1.838C15.445 2.928 17.789 5.995 17.789 9.6ZM8.476 1.493C8.28 1.875 7.763 2.03 7.449 2.317C6.765 2.936 6.471 2.85 6.103 3.444C5.732 4.038 4.536 4.893 4.536 5.323C4.536 5.753 5.14 6.259 5.442 6.161C5.744 6.061 6.541 6.067 7.009 6.231C7.478 6.397 10.923 6.563 9.825 9.475C9.477 10.401 7.952 10.245 7.546 11.778C7.485 12.003 7.274 12.964 7.261 13.278C7.236 13.764 7.605 15.596 7.136 15.596C6.665 15.596 5.398 13.957 5.398 13.66C5.398 13.363 5.07 12.322 5.07 11.43C5.07 10.539 3.552 10.553 3.552 9.368C3.552 8.3 4.375 7.768 4.19 7.255C4.009 6.745 2.563 6.728 1.96 6.665C2.48724 5.30083 3.36919 4.1022 4.51471 3.19295C5.66023 2.28371 7.02776 1.69685 8.476 1.493ZM7.025 17.37C7.517 17.11 7.567 16.774 8.013 16.757C8.523 16.734 8.938 16.558 9.513 16.431C10.023 16.32 10.936 15.802 11.739 15.736C12.417 15.681 13.754 15.771 14.114 16.425C13.0817 17.1105 11.9069 17.5519 10.6786 17.7156C9.45026 17.8793 8.20081 17.7612 7.025 17.37Z" fill="#2D2D2D"/>
</svg>
