<svg width="23" height="17" viewBox="0 0 23 17" fill="none" xmlns="http://www.w3.org/2000/svg">
<path d="M5.71504 1.08391C5.81718 1.18593 5.8982 1.30709 5.95349 1.44045C6.00877 1.57382 6.03723 1.71677 6.03723 1.86113C6.03723 2.0055 6.00877 2.14845 5.95349 2.28181C5.8982 2.41517 5.81718 2.53633 5.71504 2.63836C4.06659 4.28708 3.14053 6.52306 3.14053 8.85451C3.14053 11.186 4.06659 13.4219 5.71504 15.0707C5.81703 15.1727 5.89792 15.2939 5.95309 15.4272C6.00827 15.5605 6.03664 15.7034 6.03658 15.8477C6.03653 15.992 6.00806 16.1349 5.9528 16.2682C5.89753 16.4015 5.81655 16.5226 5.71449 16.6246C5.61242 16.7266 5.49126 16.8074 5.35794 16.8626C5.22461 16.9178 5.08172 16.9462 4.93742 16.9461C4.79313 16.9461 4.65026 16.9176 4.51697 16.8623C4.38368 16.8071 4.26258 16.7261 4.16059 16.624C-0.130352 12.3331 -0.130352 5.37485 4.16059 1.08391C4.26261 0.98177 4.38377 0.900741 4.51713 0.845458C4.65049 0.790174 4.79344 0.761719 4.93781 0.761719C5.08218 0.761719 5.22513 0.790174 5.35849 0.845458C5.49185 0.900741 5.61301 0.98177 5.71504 1.08391ZM19.7007 1.08391C23.9916 5.37595 23.9916 12.3331 19.7007 16.624C19.4935 16.8241 19.216 16.9348 18.928 16.9323C18.6399 16.9298 18.3644 16.8143 18.1607 16.6106C17.957 16.4069 17.8415 16.1314 17.839 15.8434C17.8365 15.5553 17.9472 15.2778 18.1473 15.0707C19.7958 13.4219 20.7218 11.186 20.7218 8.85451C20.7218 6.52306 19.7958 4.28708 18.1473 2.63836C17.9412 2.43237 17.8253 2.15293 17.8252 1.86152C17.8251 1.57011 17.9408 1.29059 18.1468 1.08446C18.3528 0.878325 18.6322 0.762463 18.9236 0.76236C19.215 0.762257 19.4946 0.877922 19.7007 1.08391ZM8.97444 4.24114C9.18038 4.44715 9.29608 4.72652 9.29608 5.01782C9.29608 5.30912 9.18038 5.58849 8.97444 5.79449C8.57451 6.19438 8.25727 6.66912 8.04083 7.19162C7.82439 7.71411 7.71299 8.27413 7.71299 8.83968C7.71299 9.40523 7.82439 9.96524 8.04083 10.4877C8.25727 11.0102 8.57451 11.485 8.97444 11.8849C9.07936 11.9862 9.16305 12.1074 9.22062 12.2414C9.2782 12.3755 9.3085 12.5196 9.30977 12.6655C9.31104 12.8114 9.28324 12.956 9.22801 13.091C9.17277 13.226 9.0912 13.3487 8.98805 13.4518C8.88491 13.555 8.76225 13.6365 8.62724 13.6918C8.49224 13.747 8.34758 13.7748 8.20171 13.7735C8.05585 13.7723 7.9117 13.742 7.77767 13.6844C7.64364 13.6268 7.52242 13.5431 7.42109 13.4382C6.20151 12.2186 5.51636 10.5645 5.51636 8.83968C5.51636 7.1149 6.20151 5.46076 7.42109 4.24114C7.62709 4.0352 7.90646 3.9195 8.19776 3.9195C8.48906 3.9195 8.76843 4.0352 8.97444 4.24114ZM16.6192 4.24114C17.8388 5.46076 18.524 7.1149 18.524 8.83968C18.524 10.5645 17.8388 12.2186 16.6192 13.4382C16.5173 13.5403 16.3962 13.6213 16.2629 13.6765C16.1296 13.7318 15.9867 13.7603 15.8424 13.7603C15.6981 13.7604 15.5552 13.732 15.4219 13.6768C15.2886 13.6216 15.1674 13.5408 15.0654 13.4388C14.9633 13.3368 14.8823 13.2157 14.827 13.0824C14.7718 12.9491 14.7433 12.8062 14.7433 12.6619C14.7432 12.5176 14.7716 12.3747 14.8267 12.2414C14.8819 12.1081 14.9628 11.9869 15.0648 11.8849C15.4647 11.485 15.782 11.0102 15.9984 10.4877C16.2148 9.96524 16.3262 9.40523 16.3262 8.83968C16.3262 8.27413 16.2148 7.71411 15.9984 7.19162C15.782 6.66912 15.4647 6.19438 15.0648 5.79449C14.8588 5.58836 14.7431 5.30884 14.7433 5.01743C14.7434 4.72602 14.8592 4.44658 15.0654 4.24059C15.2715 4.03461 15.551 3.91894 15.8424 3.91905C16.1338 3.91915 16.4133 4.03501 16.6192 4.24114ZM12.0196 7.28413C12.236 7.28413 12.4503 7.32675 12.6502 7.40956C12.8501 7.49237 13.0318 7.61375 13.1848 7.76677C13.3378 7.91978 13.4592 8.10144 13.542 8.30136C13.6248 8.50128 13.6674 8.71556 13.6674 8.93195C13.6674 9.14835 13.6248 9.36263 13.542 9.56255C13.4592 9.76247 13.3378 9.94413 13.1848 10.0971C13.0318 10.2502 12.8501 10.3715 12.6502 10.4543C12.4503 10.5372 12.236 10.5798 12.0196 10.5798C11.5826 10.5798 11.1635 10.4062 10.8544 10.0971C10.5454 9.78812 10.3718 9.36899 10.3718 8.93195C10.3718 8.49492 10.5454 8.07579 10.8544 7.76677C11.1635 7.45774 11.5826 7.28413 12.0196 7.28413Z" fill="white"/>
</svg>
