<svg width="50" height="50" viewBox="0 0 50 50" fill="none" xmlns="http://www.w3.org/2000/svg">
<circle cx="25" cy="25" r="25" fill="#F8F8F8"/>
<path d="M23.087 34.5833C16.7199 34.5833 11.5908 29.4542 11.5908 23.087C11.5908 16.7199 16.7199 11.5908 23.087 11.5908C29.4542 11.5908 34.5833 16.7199 34.5833 23.087C34.5833 29.4542 29.4542 34.5833 23.087 34.5833ZM23.087 13.3595C17.6927 13.3595 13.3595 17.6927 13.3595 23.087C13.3595 28.4814 17.6927 32.8146 23.087 32.8146C28.4814 32.8146 32.8146 28.4814 32.8146 23.087C32.8146 17.6927 28.4814 13.3595 23.087 13.3595Z" fill="#2D2D2D"/>
<path d="M31.6498 30.3982L39.5911 38.3394L38.3407 39.5899L30.3994 31.6486L31.6498 30.3982Z" fill="#2D2D2D"/>
</svg>
