<svg width="12" height="12" viewBox="0 0 12 12" fill="none" xmlns="http://www.w3.org/2000/svg">
<path d="M4.92716 9.85433C2.19827 9.85433 0 7.65605 0 4.92716C0 2.19827 2.19827 0 4.92716 0C7.65605 0 9.85433 2.19827 9.85433 4.92716C9.85433 7.65605 7.65605 9.85433 4.92716 9.85433ZM4.92716 0.758025C2.61519 0.758025 0.758025 2.61519 0.758025 4.92716C0.758025 7.23914 2.61519 9.0963 4.92716 9.0963C7.23914 9.0963 9.0963 7.23914 9.0963 4.92716C9.0963 2.61519 7.23914 0.758025 4.92716 0.758025Z" fill="#B0B0B0"/>
<path d="M8.59647 8.05859L12 11.4621L11.4641 11.9981L8.06055 8.59452L8.59647 8.05859Z" fill="#B0B0B0"/>
</svg>
