<svg width="19" height="19" viewBox="0 0 19 19" fill="none" xmlns="http://www.w3.org/2000/svg">
<path d="M2.57031 1.88094L16.8678 8.71958C17.0121 8.78866 17.134 8.89716 17.2193 9.03254C17.3046 9.16792 17.3498 9.32466 17.3498 9.48467C17.3498 9.64468 17.3046 9.80142 17.2193 9.9368C17.134 10.0722 17.0121 10.1807 16.8678 10.2498L2.57031 17.0884C2.42368 17.1587 2.25994 17.1853 2.09859 17.1652C1.93723 17.145 1.78508 17.0789 1.66023 16.9748C1.53538 16.8706 1.44311 16.7327 1.39441 16.5776C1.34571 16.4224 1.34262 16.2566 1.38552 16.0997L3.19052 9.48501L1.38552 2.86894C1.34297 2.71219 1.34631 2.54651 1.39517 2.3916C1.44402 2.2367 1.53632 2.09907 1.66109 1.99509C1.78587 1.89111 1.93789 1.82514 2.09906 1.80502C2.26024 1.78491 2.4238 1.81149 2.57031 1.88162V1.88094ZM2.46513 2.95987L4.10931 8.99033H11.5342C11.6574 8.99038 11.7764 9.03511 11.8691 9.11622C11.9618 9.19733 12.022 9.30931 12.0384 9.4314L12.0432 9.49926C12.0433 9.62236 11.9989 9.74134 11.918 9.83417C11.8372 9.927 11.7254 9.98737 11.6035 10.0041L11.5342 10.0089L4.10117 10.0082L2.46581 16.0102L16.1092 9.48433L2.46513 2.95919V2.95987Z" fill="url(#paint0_linear)"/>
<defs>
<linearGradient id="paint0_linear" x1="1.35547" y1="1.79849" x2="19.5492" y2="13.8518" gradientUnits="userSpaceOnUse">
<stop stop-color="#429FBA"/>
<stop offset="1" stop-color="#217E9A"/>
</linearGradient>
</defs>
</svg>
