<svg width="44" height="44" viewBox="0 0 44 44" fill="none" xmlns="http://www.w3.org/2000/svg">
<path d="M37.5563 6.44359C33.4011 2.28843 27.8764 0 22 0C16.1235 0 10.5988 2.28843 6.44359 6.44359C2.28834 10.5988 0 16.1236 0 22C0 27.8764 2.28834 33.4011 6.44359 37.5563C10.5988 41.7116 16.1235 44 22 44C27.8764 44 33.4011 41.7116 37.5563 37.5563C41.7116 33.4011 44 27.8764 44 22C44 16.1236 41.7116 10.5989 37.5563 6.44359ZM22 41.4219C11.2907 41.4219 2.57812 32.7093 2.57812 22C2.57812 11.2907 11.2907 2.57812 22 2.57812C32.7093 2.57812 41.4219 11.2907 41.4219 22C41.4219 32.7093 32.7093 41.4219 22 41.4219Z" fill="url(#paint0_linear)"/>
<path d="M32.5121 14.9419C32.0088 14.4386 31.1925 14.4386 30.6892 14.942L19.306 26.3252L13.3138 20.333C12.8105 19.8297 11.9943 19.8297 11.4908 20.333C10.9874 20.8363 10.9874 21.6526 11.4908 22.156L18.3945 29.0596C18.6462 29.3113 18.9761 29.4371 19.3059 29.4371C19.6357 29.4371 19.9657 29.3112 20.2174 29.0596L32.5121 16.7649C33.0155 16.2615 33.0155 15.4453 32.5121 14.9419Z" fill="url(#paint1_linear)"/>
<defs>
<linearGradient id="paint0_linear" x1="44" y1="44" x2="0" y2="0" gradientUnits="userSpaceOnUse">
<stop stop-color="#B5FFC6"/>
<stop offset="1" stop-color="#7AFF99"/>
</linearGradient>
<linearGradient id="paint1_linear" x1="32.9117" y1="29.3341" x2="11.0906" y2="14.6675" gradientUnits="userSpaceOnUse">
<stop stop-color="#B5FFC6"/>
<stop offset="1" stop-color="#7AFF99"/>
</linearGradient>
</defs>
</svg>
