<svg width="16" height="16" viewBox="0 0 16 16" fill="none" xmlns="http://www.w3.org/2000/svg">
<g clip-path="url(#clip0)">
<path d="M14.7674 10.0512C14.5473 10.0512 14.3689 10.2296 14.3689 10.4497V13.9878C14.3681 14.6478 13.8334 15.1826 13.1734 15.1832H1.99241C1.33243 15.1826 0.797744 14.6478 0.796966 13.9878V3.60374C0.797744 2.94391 1.33243 2.40907 1.99241 2.40829H5.53051C5.75061 2.40829 5.92899 2.22991 5.92899 2.00981C5.92899 1.78987 5.75061 1.61133 5.53051 1.61133H1.99241C0.892539 1.61257 0.00124526 2.50387 0 3.60374V13.988C0.00124526 15.0878 0.892539 15.9791 1.99241 15.9804H13.1734C14.2733 15.9791 15.1646 15.0878 15.1659 13.988V10.4497C15.1659 10.2296 14.9875 10.0512 14.7674 10.0512Z" fill="#2D2D2D"/>
<path d="M15.0093 0.585774C14.309 -0.114529 13.1737 -0.114529 12.4734 0.585774L5.36419 7.69496C5.31547 7.74368 5.28029 7.80407 5.26192 7.87038L4.32704 11.2455C4.28859 11.3839 4.32766 11.5321 4.42915 11.6337C4.5308 11.7352 4.67898 11.7743 4.81736 11.736L8.19248 10.8009C8.25879 10.7826 8.31919 10.7474 8.36791 10.6987L15.4769 3.58934C16.1762 2.88857 16.1762 1.75414 15.4769 1.05337L15.0093 0.585774ZM6.23244 7.95397L12.0508 2.1355L13.9272 4.01195L8.10874 9.83042L6.23244 7.95397ZM5.85762 8.70611L7.35676 10.2054L5.28309 10.7799L5.85762 8.70611ZM14.9135 3.02586L14.4909 3.44847L12.6142 1.57186L13.037 1.14925C13.426 0.760266 14.0567 0.760266 14.4457 1.14925L14.9135 1.61685C15.3018 2.0063 15.3018 2.63656 14.9135 3.02586Z" fill="#2D2D2D"/>
</g>
<defs>
<clipPath id="clip0">
<rect width="16" height="16" fill="white"/>
</clipPath>
</defs>
</svg>
