<svg width="18" height="18" viewBox="0 0 18 18" fill="none" xmlns="http://www.w3.org/2000/svg">
<g clip-path="url(#clip0)">
<path d="M7.61164 2.59669C6.11539 3.18879 5.13334 4.64816 5.13281 6.24717C5.13281 6.82767 5.60243 7.30126 6.18764 7.30126C6.7719 7.30126 7.24247 6.82855 7.24247 6.24717C7.24387 5.24708 8.04881 4.43286 9.05674 4.43213C10.0459 4.43213 10.8735 5.26596 10.8735 6.24542C10.8732 7.00426 10.4157 7.66998 9.709 7.94199C9.20197 8.13636 8.77303 8.47133 8.46851 8.91138C7.9116 9.71534 8.00332 10.3936 8.00332 11.4473C8.00332 11.5309 8.01316 11.6143 8.0325 11.6954C8.03839 11.7197 8.04749 11.7425 8.05928 11.7634C8.10515 11.8447 8.19177 11.8972 8.28882 11.8972C8.46088 11.8972 8.5455 11.5717 8.5455 11.5717C8.5455 11.5717 8.53038 11.5466 8.53038 10.4073C8.53179 9.52859 9.06834 8.75427 9.89814 8.43407C11.4644 7.83413 11.9252 5.81071 10.71 4.59592C9.23003 3.1176 6.71277 4.17099 6.71509 6.24714C6.71439 6.53711 6.4781 6.77367 6.18768 6.77434C5.89725 6.77364 5.66061 6.53711 5.66026 6.24714C5.65952 4.34659 7.25699 2.72814 9.27373 2.85709C11.0234 2.9659 12.4558 4.43409 12.4558 6.24745C12.4554 7.66464 11.5999 8.90956 10.2768 9.41851C10.0729 9.49617 9.89958 9.63043 9.77544 9.80653C9.53638 10.1474 9.58556 10.3454 9.58556 11.4472C9.58486 11.7372 9.34822 11.9737 9.05815 11.9741C8.9126 11.9741 8.79444 12.0925 8.79444 12.2377C8.79444 12.3334 8.83378 12.4025 8.89887 12.4461C8.90611 12.4509 8.91367 12.4554 8.92153 12.4597C9.25184 12.6371 10.112 12.2607 10.113 11.4472V10.4072C10.1136 10.1858 10.249 9.99536 10.466 9.91067C11.9991 9.32176 12.9845 7.86411 12.9831 6.24752C12.9831 3.49381 10.1848 1.57536 7.61164 2.59669Z" fill="black"/>
<path d="M8.28882 11.8972C8.19177 11.8972 8.10515 11.8447 8.05928 11.7634L8.14231 11.9741L8.32576 12.1744L8.63154 12.3618L8.89887 12.4461C8.83378 12.4025 8.79444 12.3334 8.79444 12.2377C8.79444 12.0925 8.9126 11.9741 9.05815 11.9741H8.92153L8.65749 11.8081L8.5455 11.5717C8.5455 11.5717 8.46088 11.8972 8.28882 11.8972Z" fill="black"/>
<path d="M9.95892 14.0783C9.5479 13.3975 8.5997 13.4117 8.18127 14.0413C7.72178 14.7331 8.20374 15.6785 9.0677 15.6785C9.86375 15.6785 10.3941 14.7993 9.95892 14.0783ZM8.93327 15.1347C8.7288 15.0843 8.58265 14.9322 8.54233 14.728C8.43433 14.1451 9.20474 13.8494 9.50737 14.3507C9.75272 14.7572 9.39399 15.2483 8.93327 15.1347Z" fill="black"/>
<path d="M13.5134 1.2139C8.82979 -1.50361 2.81182 0.520932 0.707644 5.49878C-0.148621 7.52107 -0.219953 9.78601 0.450969 11.8194C0.917668 13.2338 1.6845 14.2628 1.74627 14.3174L1.74732 14.316L1.74662 14.3178C1.74732 14.3185 1.74802 14.3188 1.74908 14.3199C1.74943 14.3199 1.74943 14.3203 1.74978 14.3206C1.75013 14.3206 1.75013 14.321 1.75048 14.3213C1.84962 14.4046 1.93368 14.3808 1.96884 14.3808L1.96954 14.3804C1.97288 14.3804 1.99686 14.375 2.01946 14.366C2.01982 14.366 2.02017 14.366 2.02017 14.366C2.02017 14.366 2.02607 14.3632 2.02614 14.3632H2.02685C2.19732 14.29 2.22745 14.0737 2.13513 13.9656C-1.93414 8.34995 2.13327 0.530635 9.00132 0.530635C13.7413 0.530635 17.475 4.39617 17.475 9.00129C17.475 13.6822 13.6849 17.4719 9.00132 17.4719C7.20392 17.4719 5.48633 16.9159 4.03455 15.8643C3.95369 15.8056 3.84225 15.7982 3.75432 15.846L0.79448 17.448C0.65375 17.5233 0.52673 17.4004 0.527609 17.2923C0.528348 17.2292 0.46366 17.3674 1.6517 15.1736C1.74721 14.9977 1.61816 14.7845 1.42033 14.7845C1.3233 14.7845 1.23432 14.8376 1.1883 14.9227C-0.0076447 17.1303 -0.000507899 17.0563 0.000230383 17.2923C0.0011796 17.8091 0.561008 18.1744 1.04557 17.912L3.86088 16.3876C6.90443 18.5097 10.9577 18.5396 14.0339 16.4625C19.5413 12.7437 19.262 4.54843 13.5134 1.2139Z" fill="black"/>
</g>
<defs>
<clipPath id="clip0">
<rect width="18" height="18" fill="white"/>
</clipPath>
</defs>
</svg>
