<svg width="18" height="17" viewBox="0 0 18 17" fill="none" xmlns="http://www.w3.org/2000/svg">
<path d="M2.25 12.4844H1.6875V14.0781H2.25V12.4844Z" fill="black"/>
<path d="M3.375 12.4844H2.8125V13.0156H3.375V12.4844Z" fill="black"/>
<path d="M3.375 13.5469H2.8125V14.0781H3.375V13.5469Z" fill="black"/>
<path d="M6.9068 6.04479C7.47046 6.25773 8.21384 6.375 9 6.375C9.78616 6.375 10.5295 6.25773 11.0932 6.04479C11.7384 5.80105 12.0938 5.44667 12.0938 5.04688C12.0938 4.64708 11.7384 4.2927 11.0932 4.04896C10.5295 3.83602 9.78616 3.71875 9 3.71875C8.21384 3.71875 7.47046 3.83602 6.9068 4.04896C6.26157 4.2927 5.90625 4.64708 5.90625 5.04688C5.90625 5.44667 6.26157 5.80105 6.9068 6.04479ZM9 4.25C10.5452 4.25 11.5312 4.72195 11.5312 5.04688C11.5312 5.3718 10.5452 5.84375 9 5.84375C7.45481 5.84375 6.46875 5.3718 6.46875 5.04688C6.46875 4.72195 7.45481 4.25 9 4.25Z" fill="black"/>
<path d="M15.1875 7.70312H14.9062V5.04688C14.9062 4.16513 14.2694 3.34873 13.113 2.74806C12.0098 2.17497 10.5491 1.85938 9 1.85938C7.45095 1.85938 5.99024 2.1748 4.887 2.74806C3.73061 3.34873 3.09375 4.16513 3.09375 5.04688V8.76562C3.09375 9.64737 3.73061 10.4638 4.887 11.0644C5.15297 11.2016 5.42876 11.321 5.71236 11.4219H0.84375C0.769158 11.4219 0.697621 11.4499 0.644876 11.4997C0.592132 11.5495 0.5625 11.6171 0.5625 11.6875V14.875C0.5625 14.9454 0.592132 15.013 0.644876 15.0628C0.697621 15.1126 0.769158 15.1406 0.84375 15.1406H15.1875C15.784 15.14 16.3559 14.9159 16.7778 14.5175C17.1996 14.1192 17.4368 13.579 17.4375 13.0156V9.82812C17.4368 9.26473 17.1996 8.7246 16.7778 8.32622C16.3559 7.92784 15.784 7.70376 15.1875 7.70312ZM3.9375 14.6094H1.125V11.9531H3.9375V14.6094ZM14.3438 7.70312H12.2876C12.5712 7.60229 12.847 7.48286 13.113 7.34569C13.6312 7.07652 14.0446 6.76388 14.3438 6.42158V7.70312ZM5.15809 3.21353C6.17966 2.68281 7.54411 2.39062 9 2.39062C10.4559 2.39062 11.8203 2.68281 12.8419 3.21353C13.8104 3.71662 14.3438 4.36767 14.3438 5.04688C14.3438 5.72608 13.8104 6.37713 12.8419 6.88022C11.8203 7.41094 10.4559 7.70312 9 7.70312C7.54411 7.70312 6.17966 7.41094 5.15809 6.88022C4.18961 6.37713 3.65625 5.72608 3.65625 5.04688C3.65625 4.36767 4.18961 3.71662 5.15809 3.21353ZM5.15809 10.599C4.18961 10.0959 3.65625 9.4448 3.65625 8.76562V6.42148C3.95508 6.76378 4.36876 7.07642 4.887 7.34559C5.03311 7.4215 5.18536 7.49279 5.34375 7.55949V8.76562H5.90625V7.7699C6.18297 7.86041 6.46463 7.93689 6.75 7.999V8.76562H7.3125V8.10488C7.58753 8.14828 7.86941 8.18095 8.15625 8.20267V9.82812H8.71875V8.23086C8.81213 8.23307 8.90588 8.23424 9 8.23438H9.5625V8.76562H10.125V8.23438H10.9688V8.76562H11.5312V8.23438H12.375V9.82812H12.9375V8.23438H13.7812V8.76562H14.3438V8.23438H15.1875V8.76562H15.75V8.32575C16.1251 8.45118 16.4413 8.69779 16.6426 9.02202C16.8438 9.34624 16.9173 9.72722 16.85 10.0977C16.7827 10.4681 16.579 10.8041 16.2748 11.0464C15.9705 11.2887 15.5855 11.4217 15.1875 11.4219H9C7.54411 11.4219 6.17966 11.1297 5.15809 10.599ZM16.875 13.0156C16.8745 13.4382 16.6965 13.8433 16.3802 14.142C16.0638 14.4408 15.6349 14.6089 15.1875 14.6094H4.5V11.9531H5.34375V12.4844H5.90625V11.9531H6.75V12.4844H7.3125V11.9531H8.15625V13.5469H8.71875V11.9531H9.5625V12.4844H10.125V11.9531H10.9688V12.4844H11.5312V11.9531H12.375V13.5469H12.9375V11.9531H13.7812V12.4844H14.3438V11.9531H15.1875V12.4844H15.75V11.8859C16.1858 11.7788 16.5777 11.5509 16.875 11.2314V13.0156Z" fill="black"/>
</svg>
