<svg width="20" height="20" viewBox="0 0 20 20" fill="none" xmlns="http://www.w3.org/2000/svg">
<g clip-path="url(#clip0)">
<path d="M19.0012 5.5H6.999C6.44833 5.5 6 5.94833 6 6.499V14.5011C6 15.0518 6.44833 15.5001 6.999 15.5001H14.5288L17.7645 18.7358C17.8285 18.7995 17.9139 18.8335 18.0005 18.8335C18.0435 18.8335 18.0869 18.8255 18.1279 18.8081C18.2522 18.7568 18.3336 18.6348 18.3336 18.5001V15.5001H19.0012C19.5522 15.5001 20.0002 15.0518 20.0002 14.5011V6.499C20.0002 5.94833 19.5519 5.5 19.0012 5.5ZM19.3338 14.5011C19.3338 14.6844 19.1845 14.8335 19.0015 14.8335H18.0005C17.8165 14.8335 17.6672 14.9825 17.6672 15.1668V17.6955L14.9028 14.9311C14.8405 14.8685 14.7555 14.8335 14.6671 14.8335H6.99931C6.81599 14.8335 6.66696 14.6845 6.66696 14.5011V6.499C6.66696 6.31568 6.81595 6.16665 6.99931 6.16665H19.0015C19.1848 6.16665 19.3338 6.31564 19.3338 6.499V14.5011Z" fill="black"/>
<path d="M13.0012 1.16602H0.999C0.448327 1.16602 0 1.61438 0 2.16505V10.1672C0 10.7178 0.448327 11.1662 0.999 11.1662H1.66667V14.1662C1.66667 14.3009 1.748 14.4229 1.87269 14.4742C1.9137 14.4916 1.95702 14.4996 2.00003 14.4996C2.08671 14.4996 2.17203 14.4656 2.2357 14.4019L5.47176 11.1662H6.33346C6.51745 11.1662 6.66678 11.0172 6.66678 10.8329V6.49844C6.66678 6.31512 6.81577 6.16609 6.99913 6.16609H13.6669C13.8509 6.16609 14.0002 6.01711 14.0002 5.83277V2.16505C14.0002 1.61438 13.5519 1.16602 13.0012 1.16602ZM13.3335 5.49944H6.99909C6.44842 5.49944 6.00009 5.94777 6.00009 6.49844V10.4995H5.3334C5.24508 10.4995 5.16039 10.5345 5.09774 10.5972L2.33336 13.3616V10.8328C2.33336 10.6485 2.18402 10.4995 2.00003 10.4995H0.999C0.815677 10.4995 0.666651 10.3505 0.666651 10.1672V2.16505C0.666651 1.98173 0.815638 1.83271 0.999 1.83271H13.0012C13.1845 1.83271 13.3335 1.98169 13.3335 2.16505V5.49944Z" fill="black"/>
<path d="M12.9987 8.83301C12.0797 8.83301 11.332 9.58068 11.332 10.4997C11.332 11.4187 12.0797 12.1664 12.9987 12.1664C13.9177 12.1664 14.6654 11.4188 14.6654 10.4997C14.6654 9.58068 13.9177 8.83301 12.9987 8.83301ZM12.9987 11.4997C12.4474 11.4997 11.9987 11.0511 11.9987 10.4997C11.9987 9.94838 12.4474 9.4997 12.9987 9.4997C13.5501 9.4997 13.9988 9.94838 13.9988 10.4997C13.9988 11.0511 13.5501 11.4997 12.9987 11.4997Z" fill="black"/>
<path d="M16.9987 8.83301C16.0797 8.83301 15.332 9.58068 15.332 10.4997C15.332 11.4187 16.0797 12.1664 16.9987 12.1664C17.9177 12.1664 18.6654 11.4188 18.6654 10.4997C18.6654 9.58068 17.9177 8.83301 16.9987 8.83301ZM16.9987 11.4997C16.4474 11.4997 15.9987 11.0511 15.9987 10.4997C15.9987 9.94838 16.4474 9.4997 16.9987 9.4997C17.5501 9.4997 17.9988 9.94838 17.9988 10.4997C17.9988 11.0511 17.5501 11.4997 16.9987 11.4997Z" fill="black"/>
<path d="M8.99874 8.83301C8.07974 8.83301 7.33203 9.58068 7.33203 10.4997C7.33203 11.4187 8.0797 12.1664 8.99874 12.1664C9.91774 12.1664 10.6654 11.4188 10.6654 10.4997C10.6654 9.58068 9.91774 8.83301 8.99874 8.83301ZM8.99874 11.4997C8.4474 11.4997 7.99872 11.0511 7.99872 10.4997C7.99872 9.94838 8.4474 9.4997 8.99874 9.4997C9.55007 9.4997 9.99875 9.94838 9.99875 10.4997C9.99875 11.0511 9.55007 11.4997 8.99874 11.4997Z" fill="black"/>
</g>
<defs>
<clipPath id="clip0">
<rect width="20" height="20" fill="white"/>
</clipPath>
</defs>
</svg>
