<svg width="17" height="17" viewBox="0 0 17 17" fill="none" xmlns="http://www.w3.org/2000/svg">
<path d="M11.4565 6.65217C11.6605 6.65217 11.8261 6.48659 11.8261 6.28259V1.84781C11.8261 0.829304 10.9975 0 9.97825 0H1.84781C0.828576 0 0 0.829304 0 1.84781V15.1522C0 16.1707 0.828576 17 1.84781 17H9.97825C10.9975 17 11.8261 16.1707 11.8261 15.1522V10.7174C11.8261 10.5134 11.6605 10.3478 11.4565 10.3478C11.2525 10.3478 11.0869 10.5134 11.0869 10.7174V15.1522C11.0869 15.7634 10.5895 16.2608 9.97825 16.2608H1.84781C1.23654 16.2608 0.739118 15.7634 0.739118 15.1522V1.84781C0.739118 1.23654 1.23654 0.739118 1.84781 0.739118H9.97825C10.5895 0.739118 11.0869 1.23654 11.0869 1.84781V6.28259C11.0869 6.48659 11.2525 6.65217 11.4565 6.65217Z" fill="url(#paint0_linear)"/>
<path d="M16.6292 8.13086H4.80317C4.59917 8.13086 4.43359 8.29644 4.43359 8.50044C4.43359 8.70444 4.59917 8.86998 4.80317 8.86998H16.6292C16.8332 8.86998 16.9988 8.7044 16.9988 8.5004C16.9988 8.2964 16.8332 8.13086 16.6292 8.13086Z" fill="url(#paint1_linear)"/>
<path d="M16.891 8.23955L14.6736 6.02216C14.5295 5.87803 14.2952 5.87803 14.1511 6.02216C14.0069 6.16629 14.0069 6.40061 14.1511 6.54474L16.1068 8.50047L14.1511 10.4562C14.0069 10.6003 14.0069 10.8347 14.1511 10.9788C14.2235 11.0505 14.3181 11.0867 14.4127 11.0867C14.5073 11.0867 14.6019 11.0505 14.6736 10.9796L16.891 8.76216C17.0351 8.618 17.0351 8.38368 16.891 8.23955Z" fill="url(#paint2_linear)"/>
<defs>
<linearGradient id="paint0_linear" x1="0" y1="0" x2="16.1814" y2="7.16794" gradientUnits="userSpaceOnUse">
<stop stop-color="#429FBA"/>
<stop offset="1" stop-color="#217E9A"/>
</linearGradient>
<linearGradient id="paint1_linear" x1="4.43359" y1="8.13086" x2="4.60761" y2="10.0146" gradientUnits="userSpaceOnUse">
<stop stop-color="#429FBA"/>
<stop offset="1" stop-color="#217E9A"/>
</linearGradient>
<linearGradient id="paint2_linear" x1="14.043" y1="5.91406" x2="18.3157" y2="7.46894" gradientUnits="userSpaceOnUse">
<stop stop-color="#429FBA"/>
<stop offset="1" stop-color="#217E9A"/>
</linearGradient>
</defs>
</svg>
