<svg width="14" height="17" viewBox="0 0 14 17" fill="none" xmlns="http://www.w3.org/2000/svg">
<path d="M8.77478 5.67774H5.91205C5.76647 5.67774 5.64844 5.56627 5.64844 5.42871C5.64844 5.29115 5.76647 5.17969 5.91205 5.17969H8.77478C8.92037 5.17969 9.0384 5.29115 9.0384 5.42871C9.0384 5.56627 8.9204 5.67774 8.77478 5.67774Z" fill="black"/>
<path d="M11.6376 4.39942H5.91205C5.76647 4.39942 5.64844 4.28795 5.64844 4.15039C5.64844 4.01283 5.76647 3.90137 5.91205 3.90137H11.6376C11.7831 3.90137 11.9012 4.01283 11.9012 4.15039C11.9012 4.28795 11.7831 4.39942 11.6376 4.39942Z" fill="black"/>
<path d="M8.77478 9.85156H5.91205C5.76647 9.85156 5.64844 9.7401 5.64844 9.60254C5.64844 9.46498 5.76647 9.35352 5.91205 9.35352H8.77478C8.92037 9.35352 9.0384 9.46498 9.0384 9.60254C9.0384 9.7401 8.9204 9.85156 8.77478 9.85156Z" fill="black"/>
<path d="M11.6376 8.57324H5.91205C5.76647 8.57324 5.64844 8.46178 5.64844 8.32422C5.64844 8.18666 5.76647 8.0752 5.91205 8.0752H11.6376C11.7831 8.0752 11.9012 8.18666 11.9012 8.32422C11.9012 8.46178 11.7831 8.57324 11.6376 8.57324Z" fill="black"/>
<path d="M8.77478 14.0244H5.91205C5.76647 14.0244 5.64844 13.913 5.64844 13.7754C5.64844 13.6378 5.76647 13.5264 5.91205 13.5264H8.77478C8.92037 13.5264 9.0384 13.6378 9.0384 13.7754C9.0384 13.913 8.9204 14.0244 8.77478 14.0244Z" fill="black"/>
<path d="M11.6376 12.7461H5.91205C5.76647 12.7461 5.64844 12.6346 5.64844 12.4971C5.64844 12.3595 5.76647 12.248 5.91205 12.248H11.6376C11.7831 12.248 11.9012 12.3595 11.9012 12.4971C11.9012 12.6346 11.7831 12.7461 11.6376 12.7461Z" fill="black"/>
<path d="M9.02837 2.34585H4.46945C4.03613 2.34585 3.68359 2.01285 3.68359 1.60352V0.742359C3.68363 0.333029 4.03613 0 4.46945 0H9.02833C9.46165 0 9.81419 0.333029 9.81419 0.742359V1.60352C9.81419 2.01285 9.46168 2.34585 9.02837 2.34585ZM4.46945 0.498049C4.32685 0.498049 4.21082 0.607653 4.21082 0.742359V1.60352C4.21082 1.73823 4.32685 1.8478 4.46945 1.8478H9.02833C9.17093 1.8478 9.28696 1.73819 9.28696 1.60352V0.742359C9.28696 0.60762 9.17093 0.498049 9.02833 0.498049H4.46945Z" fill="black"/>
<path d="M3.47702 6.01127H2.30541C1.91515 6.01127 1.59766 5.71135 1.59766 5.34269V4.23596C1.59766 3.86731 1.91515 3.56738 2.30541 3.56738H3.47702C3.86727 3.56738 4.18477 3.86731 4.18477 4.23596V5.34272C4.18477 5.71135 3.86727 6.01127 3.47702 6.01127ZM2.30541 4.06543C2.20587 4.06543 2.12488 4.14193 2.12488 4.23596V5.34272C2.12488 5.43676 2.20587 5.51326 2.30541 5.51326H3.47702C3.57656 5.51326 3.65754 5.43676 3.65754 5.34272V4.23596C3.65754 4.14193 3.57656 4.06543 3.47702 4.06543H2.30541Z" fill="black"/>
<path d="M3.47702 10.1852H2.30541C1.91515 10.1852 1.59766 9.88523 1.59766 9.51657V8.4098C1.59766 8.04114 1.91515 7.74121 2.30541 7.74121H3.47702C3.86727 7.74121 4.18477 8.04114 4.18477 8.4098V9.51657C4.18477 9.88523 3.86727 10.1852 3.47702 10.1852ZM2.30541 8.23926C2.20587 8.23926 2.12488 8.31576 2.12488 8.4098V9.51657C2.12488 9.6106 2.20587 9.6871 2.30541 9.6871H3.47702C3.57656 9.6871 3.65754 9.6106 3.65754 9.51657V8.4098C3.65754 8.31576 3.57656 8.23926 3.47702 8.23926H2.30541Z" fill="black"/>
<path d="M3.47702 14.358H2.30541C1.91515 14.358 1.59766 14.0581 1.59766 13.6894V12.5827C1.59766 12.214 1.91515 11.9141 2.30541 11.9141H3.47702C3.86727 11.9141 4.18477 12.214 4.18477 12.5827V13.6894C4.18477 14.0581 3.86727 14.358 3.47702 14.358ZM2.30541 12.4121C2.20587 12.4121 2.12488 12.4887 2.12488 12.5827V13.6894C2.12488 13.7835 2.20587 13.86 2.30541 13.86H3.47702C3.57656 13.86 3.65754 13.7835 3.65754 13.6894V12.5827C3.65754 12.4887 3.57656 12.4121 3.47702 12.4121H2.30541Z" fill="black"/>
<path d="M12.358 17H1.14201C0.51229 17 0 16.5161 0 15.9212V2.0026C0 1.40777 0.512325 0.923828 1.14201 0.923828H2.72176C2.86735 0.923828 2.98538 1.03529 2.98538 1.17285C2.98538 1.31041 2.86735 1.42188 2.72176 1.42188H1.14201C0.803004 1.42188 0.527228 1.68239 0.527228 2.0026V15.9212C0.527228 16.2414 0.803039 16.5019 1.14201 16.5019H12.358C12.697 16.5019 12.9728 16.2414 12.9728 15.9212V2.0026C12.9728 1.68236 12.697 1.42188 12.358 1.42188H10.7782C10.6326 1.42188 10.5146 1.31041 10.5146 1.17285C10.5146 1.03529 10.6326 0.923828 10.7782 0.923828H12.358C12.9877 0.923828 13.5 1.40777 13.5 2.0026V15.9212C13.5 16.5161 12.9877 17 12.358 17Z" fill="black"/>
</svg>
