<svg width="17" height="16" viewBox="0 0 17 16" fill="none" xmlns="http://www.w3.org/2000/svg">
<g clip-path="url(#clip0)">
<path d="M13.0443 11.2424L12.3791 4.80508C12.3111 4.1276 12.0547 3.47893 11.6357 2.92433C11.2168 2.36973 10.65 1.92874 9.99245 1.64574C9.98006 1.21462 9.78939 0.805081 9.46102 0.504275C9.13265 0.20347 8.69251 0.0351562 8.23429 0.0351562C7.77606 0.0351562 7.33592 0.20347 7.00755 0.504275C6.67918 0.805081 6.48851 1.21462 6.47612 1.64574C5.81879 1.92935 5.25226 2.37066 4.83336 2.92539C4.41445 3.48012 4.1579 4.12878 4.08944 4.80629L3.42168 11.2497C2.94266 11.2944 2.49838 11.505 2.17505 11.8407C1.85172 12.1763 1.67239 12.613 1.67188 13.0661V13.5347C1.67188 13.6311 1.71254 13.7235 1.78493 13.7916C1.85731 13.8597 1.95549 13.898 2.05786 13.898H5.44167C5.70519 14.3814 6.10524 14.7869 6.59782 15.0701C7.0904 15.3533 7.65643 15.5031 8.23364 15.5031C8.81085 15.5031 9.37688 15.3533 9.86946 15.0701C10.362 14.7869 10.7621 14.3814 11.0256 13.898H14.4094C14.5118 13.898 14.61 13.8597 14.6824 13.7916C14.7547 13.7235 14.7954 13.6311 14.7954 13.5347V12.9692C14.794 12.5251 14.6116 12.0984 14.2858 11.7771C13.96 11.4558 13.5156 11.2644 13.0443 11.2424ZM8.23364 0.726639C8.44552 0.726344 8.65188 0.79024 8.82218 0.908876C8.99249 1.02751 9.11771 1.19459 9.17931 1.38539C8.5573 1.25173 7.91128 1.25173 7.28926 1.38539C7.3508 1.19478 7.47582 1.02785 7.64587 0.909237C7.81592 0.79062 8.02198 0.726604 8.23364 0.726639ZM8.23364 14.7735C7.86884 14.774 7.50888 14.6948 7.18205 14.5423C6.85522 14.3898 6.57043 14.168 6.35003 13.8944H10.1185C9.89836 14.1685 9.61343 14.3906 9.28628 14.5432C8.95914 14.6958 8.59875 14.7746 8.23364 14.7735ZM14.0234 13.1678H2.44385V13.0625C2.4469 12.772 2.57182 12.4944 2.79138 12.2903C3.01094 12.0862 3.30733 11.972 3.61596 11.9726H3.77293C3.86915 11.973 3.96207 11.9396 4.03347 11.8789C4.10488 11.8182 4.14961 11.7346 4.15891 11.6445L4.85755 4.88137C4.9157 4.29418 5.14745 3.73405 5.52653 3.26448C5.90561 2.79491 6.41686 2.43466 7.00235 2.22457H7.01521C7.79867 1.94783 8.66218 1.94783 9.44564 2.22457L9.48681 2.2391C10.0652 2.45077 10.5699 2.8092 10.9449 3.27457C11.3199 3.73994 11.5505 4.29404 11.611 4.87531L12.3097 11.6384C12.319 11.7285 12.3637 11.8122 12.4351 11.8729C12.5065 11.9336 12.5994 11.967 12.6956 11.9666H12.953C13.2361 11.9662 13.5078 12.0716 13.7085 12.2596C13.9091 12.4476 14.0224 12.7028 14.0234 12.9692V13.1678Z" fill="black"/>
</g>
<defs>
<clipPath id="clip0">
<rect width="16.4688" height="15.5" fill="white"/>
</clipPath>
</defs>
</svg>
