<svg width="20" height="20" viewBox="0 0 20 20" fill="none" xmlns="http://www.w3.org/2000/svg">
<path d="M3.56324 15.8766C3.49156 15.8766 3.42281 15.8482 3.37213 15.7975C3.32144 15.7468 3.29297 15.678 3.29297 15.6064V3.33367C3.29347 2.83507 3.49176 2.35704 3.84432 2.00448C4.19688 1.65191 4.67491 1.45363 5.17351 1.45312H17.4613C17.533 1.45312 17.6018 1.4816 17.6525 1.53229C17.7031 1.58297 17.7316 1.65172 17.7316 1.7234C17.7316 1.79508 17.7031 1.86382 17.6525 1.91451C17.6018 1.96519 17.533 1.99367 17.4613 1.99367H5.17351C4.81825 1.99409 4.47767 2.13541 4.22646 2.38662C3.97525 2.63782 3.83394 2.97841 3.83351 3.33367V15.6064C3.83351 15.678 3.80503 15.7468 3.75435 15.7975C3.70366 15.8482 3.63492 15.8766 3.56324 15.8766Z" fill="black"/>
<path d="M19.1873 5.17104H15.7313C15.6597 5.17104 15.5909 5.14257 15.5402 5.09188C15.4895 5.0412 15.4611 4.97245 15.4611 4.90077V3.45131C15.458 3.18694 15.5074 2.92459 15.6065 2.67945C15.7055 2.43432 15.8522 2.21127 16.0381 2.02324C16.2239 1.83521 16.4452 1.68592 16.6892 1.58404C16.9332 1.48215 17.1949 1.42969 17.4593 1.42969C17.7237 1.42969 17.9855 1.48215 18.2294 1.58404C18.4734 1.68592 18.6947 1.83521 18.8806 2.02324C19.0664 2.21127 19.2131 2.43432 19.3122 2.67945C19.4112 2.92459 19.4607 3.18694 19.4576 3.45131V4.90077C19.4576 4.97245 19.4291 5.0412 19.3784 5.09188C19.3277 5.14257 19.259 5.17104 19.1873 5.17104ZM16.0016 4.6305H18.917V3.45131C18.9197 3.25821 18.8839 3.06651 18.8118 2.88735C18.7397 2.70819 18.6328 2.54513 18.4972 2.40765C18.3615 2.27017 18.2 2.16101 18.0218 2.0865C17.8436 2.01199 17.6524 1.97362 17.4593 1.97362C17.2662 1.97362 17.075 2.01199 16.8968 2.0865C16.7187 2.16101 16.5571 2.27017 16.4215 2.40765C16.2859 2.54513 16.1789 2.70819 16.1068 2.88735C16.0347 3.06651 15.999 3.25821 16.0016 3.45131V4.6305Z" fill="black"/>
<path d="M13.4388 18.5471H3.15447C2.46106 18.5463 1.79628 18.2705 1.30597 17.7802C0.815653 17.2899 0.539849 16.6251 0.539062 15.9317V15.6074C0.539062 15.5357 0.567537 15.467 0.618223 15.4163C0.668908 15.3656 0.737653 15.3371 0.809333 15.3371H11.1455C11.2172 15.3371 11.286 15.3656 11.3367 15.4163C11.3873 15.467 11.4158 15.5357 11.4158 15.6074V15.9842C11.4158 16.5207 11.6289 17.0352 12.0083 17.4145C12.3877 17.7939 12.9022 18.007 13.4387 18.007C13.9751 18.007 14.4897 17.7939 14.869 17.4145C15.2484 17.0352 15.4615 16.5207 15.4615 15.9842V4.90308C15.4615 4.8314 15.49 4.76266 15.5407 4.71197C15.5913 4.66129 15.6601 4.63281 15.7318 4.63281C15.8034 4.63281 15.8722 4.66129 15.9229 4.71197C15.9736 4.76266 16.002 4.8314 16.002 4.90308V15.9842C16.0008 16.6636 15.7304 17.3148 15.2499 17.7952C14.7695 18.2756 14.1182 18.546 13.4388 18.5471ZM1.0796 15.8774V15.9315C1.08018 16.4816 1.29896 17.009 1.68795 17.398C2.07694 17.787 2.60436 18.0058 3.15447 18.0063H11.8658C11.5575 17.767 11.3079 17.4603 11.1362 17.1097C10.9646 16.7591 10.8753 16.374 10.8753 15.9836V15.8771L1.0796 15.8774Z" fill="black"/>
<path d="M9.66451 9.45951C9.6065 9.45921 9.55011 9.44026 9.5037 9.40545C8.39019 8.58167 7.35938 7.56761 7.35938 5.73653V4.91653C7.35924 4.88041 7.36634 4.84463 7.38027 4.8113C7.39419 4.77797 7.41466 4.74776 7.44046 4.72248C7.46618 4.69685 7.49696 4.67685 7.53084 4.66378C7.56471 4.6507 7.60094 4.64483 7.63721 4.64653C7.98212 4.67097 8.32779 4.61116 8.64443 4.47227C8.96107 4.33337 9.23918 4.11955 9.45478 3.84924C9.48086 3.81662 9.51436 3.79072 9.55249 3.7737C9.59063 3.75667 9.63228 3.74903 9.67397 3.7514C9.71552 3.75302 9.75612 3.7642 9.79264 3.78408C9.82916 3.80395 9.8606 3.83198 9.88451 3.86599C10.2264 4.35248 10.8069 4.60086 11.7115 4.6468C11.7808 4.65034 11.8461 4.68037 11.8938 4.73068C11.9415 4.78098 11.9681 4.84772 11.968 4.91707V5.73815C11.9828 6.47608 11.7823 7.20233 11.391 7.82815C10.9717 8.4477 10.44 8.98316 9.82343 9.4068C9.77737 9.44075 9.72173 9.4592 9.66451 9.45951ZM7.90019 5.18437V5.73761C7.90019 6.9887 8.39803 7.87464 9.66451 8.85059C10.162 8.49187 10.5921 8.0479 10.9348 7.53924C11.2707 6.99933 11.4422 6.37333 11.4283 5.73761V5.16761C10.7679 5.14355 10.1383 4.8826 9.65451 4.43248C9.18515 4.89489 8.55873 5.16337 7.90019 5.18437Z" fill="black"/>
<path d="M9.28659 7.33955C9.21492 7.33954 9.14619 7.31105 9.09551 7.26036L8.68524 6.85009C8.63601 6.79912 8.60877 6.73085 8.60939 6.65998C8.61 6.58912 8.63843 6.52133 8.68854 6.47122C8.73865 6.42111 8.80643 6.39269 8.8773 6.39207C8.94816 6.39146 9.01643 6.4187 9.0674 6.46793L9.28659 6.68712L10.2631 5.71063C10.3141 5.6614 10.3823 5.63416 10.4532 5.63478C10.5241 5.63539 10.5918 5.66382 10.6419 5.71393C10.6921 5.76404 10.7205 5.83182 10.7211 5.90269C10.7217 5.97355 10.6945 6.04182 10.6452 6.0928L9.47767 7.26036C9.427 7.31105 9.35827 7.33954 9.28659 7.33955Z" fill="black"/>
<path d="M13.7182 11.3511H5.61011C5.53843 11.3511 5.46969 11.3226 5.419 11.2719C5.36832 11.2212 5.33984 11.1525 5.33984 11.0808C5.33984 11.0091 5.36832 10.9404 5.419 10.8897C5.46969 10.839 5.53843 10.8105 5.61011 10.8105H13.7182C13.7899 10.8105 13.8587 10.839 13.9093 10.8897C13.96 10.9404 13.9885 11.0091 13.9885 11.0808C13.9885 11.1525 13.96 11.2212 13.9093 11.2719C13.8587 11.3226 13.7899 11.3511 13.7182 11.3511Z" fill="black"/>
<path d="M13.7182 13.2427H5.61011C5.53843 13.2427 5.46969 13.2142 5.419 13.1635C5.36832 13.1128 5.33984 13.0441 5.33984 12.9724C5.33984 12.9007 5.36832 12.832 5.419 12.7813C5.46969 12.7306 5.53843 12.7021 5.61011 12.7021H13.7182C13.7899 12.7021 13.8587 12.7306 13.9093 12.7813C13.96 12.832 13.9885 12.9007 13.9885 12.9724C13.9885 13.0441 13.96 13.1128 13.9093 13.1635C13.8587 13.2142 13.7899 13.2427 13.7182 13.2427Z" fill="black"/>
</svg>
