<svg width="15" height="18" viewBox="0 0 15 18" fill="none" xmlns="http://www.w3.org/2000/svg">
<path d="M13.8382 3.64451L7.07305 0.039663C6.97268 -0.0139021 6.8524 -0.0131504 6.75278 0.0415425L0.174792 3.64639C0.0669095 3.70559 0 3.81873 0 3.94184V8.65069C0.00394692 12.5215 2.29729 16.0233 5.84387 17.5741L6.75692 17.972C6.84225 18.0092 6.93942 18.0094 7.02493 17.9723L8.05376 17.528C11.6661 16.0109 14.0162 12.4752 14.0166 8.55728V3.94184C14.0166 3.81742 13.948 3.70296 13.8382 3.64451ZM13.343 8.55728C13.3422 12.2052 11.1536 15.4967 7.79007 16.9084L7.78781 16.9095L6.89187 17.2963L6.11339 16.9567C2.81208 15.5132 0.677177 12.2538 0.673418 8.65069V4.14125L6.91686 0.719471L13.343 4.1437V8.55728Z" fill="black"/>
<path d="M4.43292 8.43203C4.31207 8.2905 4.0995 8.27377 3.95798 8.39463C3.81646 8.51529 3.79973 8.72804 3.92058 8.86938L5.69969 10.9528C5.81847 11.0919 6.02653 11.1108 6.16824 10.9954L10.3117 7.62442C10.4561 7.50714 10.4779 7.29494 10.3604 7.1506C10.2431 7.00644 10.0309 6.98445 9.8866 7.10192L5.99834 10.2651L4.43292 8.43203Z" fill="black"/>
</svg>
