<svg width="18" height="17" viewBox="0 0 18 17" fill="none" xmlns="http://www.w3.org/2000/svg">
<g clip-path="url(#clip0)">
<path d="M14.8321 1.96809C14.1953 1.50986 13.46 1.10447 12.6999 0.792795C11.316 0.225477 9.8643 -0.0398458 8.38521 0.00483235C5.61436 0.0881266 3.59139 1.24125 2.59207 1.95972H0.394531V17H17.609V1.95881L14.8321 1.96809ZM17.077 16.4976H0.926461V2.4621H2.77371L2.84573 2.40925C3.7665 1.73351 5.71273 0.587792 8.40216 0.506976C9.80231 0.465044 11.1769 0.716133 12.4881 1.25364C13.2372 1.56076 13.9601 1.9633 14.5788 2.41785L14.6512 2.47107L17.077 2.463V16.4976Z" fill="black"/>
<path d="M15.8091 15.2879H2.15693V3.46527H3.5341V2.96289H1.625V15.7903H16.341V8.36442H15.8091V15.2879Z" fill="black"/>
<path d="M6.07191 6.33837C7.00239 6.06093 7.96717 5.93038 8.93901 5.95017C9.78641 5.96749 10.6267 6.09958 11.4367 6.34283L11.6582 6.40934L13.518 2.69995L13.2904 2.58842C12.2647 2.08591 10.6047 1.49532 8.52268 1.53835C7.0219 1.56903 5.52118 1.93215 4.18274 2.58846L3.95312 2.70102L5.85275 6.40372L6.07191 6.33837ZM5.43118 2.62456L5.83906 3.43647L6.31964 3.22112L5.93165 2.44876C6.25936 2.35134 6.59245 2.27085 6.92902 2.20776L7.03895 3.07064L7.56709 3.01066L7.45411 2.12379C7.79266 2.07898 8.13338 2.05168 8.47431 2.04257V3.22728H9.00624V2.04251C9.34349 2.05182 9.66779 2.07804 9.97783 2.11766L9.86403 3.01069L10.3922 3.07074L10.5032 2.19952C10.8596 2.26486 11.1944 2.34631 11.5051 2.43754L11.1114 3.22115L11.592 3.43651L11.9999 2.6246C11.9999 2.6246 12.509 2.78559 12.8162 2.92592L11.3752 5.80003C10.7149 5.61853 10.1234 5.5063 9.43895 5.46457L8.52428 3.93242L8.06008 4.17771L8.8118 5.44649C8.79003 5.44635 8.76822 5.44582 8.74645 5.44582C7.86188 5.44582 6.98431 5.56351 6.13223 5.79631L4.65907 2.92482C4.95241 2.79065 5.43118 2.62456 5.43118 2.62456Z" fill="black"/>
<path d="M13.9453 3.46527H15.8071V8.41074L16.339 8.53667V2.96289H13.9453V3.46527Z" fill="black"/>
</g>
<defs>
<clipPath id="clip0">
<rect width="18" height="17" fill="white"/>
</clipPath>
</defs>
</svg>
